<svg width="808" height="771" viewBox="0 0 808 771" fill="none" xmlns="http://www.w3.org/2000/svg">
<g id="avatar">
<path id="Vector" d="M456.046 764.101C369.403 780.484 279.754 766.549 202.123 724.633C124.493 682.716 63.5984 615.364 29.6455 533.866C-4.30729 452.367 -9.25538 361.673 15.6305 276.984C40.5164 192.295 93.7239 118.757 166.336 68.6947C238.948 18.6321 326.553 -4.91289 414.467 2.00555C502.382 8.92398 585.265 45.8854 649.225 106.696C713.185 167.506 754.337 248.469 765.782 336.017C777.228 423.565 758.272 512.378 712.092 587.57L807.7 661.256L771.479 685.406C715.445 722.765 651.09 708.832 613.845 695.051C567.134 729.706 513.185 753.314 456.046 764.101ZM325.073 69.6252C150.755 102.5 35.7173 271.249 68.6351 445.794C101.553 620.34 270.152 735.596 444.47 702.721C497.591 692.708 547.332 669.465 589.108 635.134L604.215 622.682L621.993 630.892C634.95 636.875 660.118 646.636 686.971 647.013L626.809 600.646L644.712 576.062C670.765 540.612 689.207 500.144 698.879 457.204C708.55 414.264 709.241 369.781 700.908 326.552C667.99 152.007 499.391 36.7501 325.073 69.6252Z" fill="white"/>
<path id="bubble" d="M733.952 320.412C697.873 129.104 512.879 3.39133 320.757 39.6241C128.635 75.8568 2.13759 260.315 38.2168 451.623C74.2961 642.931 259.29 768.644 451.412 732.411C509.899 721.469 564.675 695.958 610.633 658.256C637.893 670.758 702.964 693.676 756.299 658.269L671.856 593.559C700.431 554.666 720.688 510.351 731.37 463.364C742.052 416.378 742.931 367.721 733.952 320.412Z" fill="#FFB800"/>
<path id="Vector_3" opacity="0.1" d="M99.4767 439.052C65.3436 258.063 176.63 83.2506 351.291 34.2581C340.999 35.2838 330.667 36.7371 320.311 38.6901C128.333 74.8958 1.95163 259.332 38.0309 450.64C74.1101 641.948 258.987 767.683 450.966 731.478C461.306 729.528 471.439 727.115 481.382 724.326C300.893 742.289 133.607 620.024 99.4767 439.052Z" fill="black"/>
<path id="Vector_4" d="M685.207 132.22C686.096 132.22 686.817 131.499 686.817 130.61C686.817 129.721 686.096 129 685.207 129C684.317 129 683.597 129.721 683.597 130.61C683.597 131.499 684.317 132.22 685.207 132.22Z" fill="#E7EFFD"/>
<path id="Vector_5" opacity="0.4" d="M549.027 609.85H520.427V629.15H549.027V609.85Z" fill="black"/>
<path id="Vector_6" opacity="0.4" d="M626.237 609.85H597.637V629.15H626.237V609.85Z" fill="black"/>
<path id="Vector_7" opacity="0.4" d="M412.487 483.27H269.507V500.52H412.487V483.27Z" fill="black"/>
<path id="Vector_8" opacity="0.4" d="M412.487 538.31H269.507V555.56H412.487V538.31Z" fill="black"/>
<path id="Vector_9" d="M709.157 215.5H706.697V213.04H706.247V215.5H703.797V215.94H706.247V218.4H706.697V215.94H709.157V215.5Z" fill="#E7EFFD"/>
<path id="Vector_10" d="M575.867 579.99C575.867 579.99 541.557 588.29 527.977 603.82C523.427 609.01 516.677 612.75 509.707 615.42V591.99C517.557 578.81 525.467 564.15 525.467 564.15C525.827 563.43 528.687 553.32 528.687 553.32C535.127 548.26 528.327 530.58 528.327 530.58C528.327 530.58 532.267 519.39 530.117 517.22C527.967 515.05 529.757 509.28 531.547 506.75C533.337 504.22 532.977 500.97 532.977 498.81C532.977 496.65 530.117 493.39 525.467 491.59C520.817 489.79 525.827 486.9 528.687 486.17C531.547 485.44 532.267 478.59 529.047 474.98C525.827 471.37 529.407 469.21 531.187 465.24C532.967 461.27 525.437 461.99 525.437 461.99V425.49C525.437 425.49 523.287 413.58 521.147 392.64C519.007 371.7 510.777 369.54 510.777 369.54C506.369 368.171 502.067 366.48 497.907 364.48C493.526 362.427 488.984 360.738 484.327 359.43C484.327 359.43 474.677 359.43 466.807 357.01C458.937 354.59 454.857 354.42 454.857 354.42L453.567 353.78C443.889 348.859 436.222 340.729 431.877 330.78C431.657 330.28 431.457 329.78 431.257 329.3C433.394 326.958 435.306 324.42 436.967 321.72V321.66C436.967 322.03 436.967 322.4 436.967 322.77C436.967 322.92 436.967 323.08 436.967 323.23C436.967 324.12 436.967 325.01 436.967 325.9V325.99C442.667 315.92 459.207 313.62 460.777 302.12C460.848 301.596 460.885 301.069 460.887 300.54V300.47C460.887 300.09 460.887 299.7 460.887 299.31C460.677 296.1 459.577 292.9 459.367 289.66C459.297 288.731 459.297 287.799 459.367 286.87V286.93C460.107 278 466.837 270.23 469.917 261.56C470.745 259.228 471.286 256.803 471.527 254.34V254.27C471.607 253.53 471.657 252.78 471.677 252.03C471.677 251.85 471.677 251.66 471.677 251.48C471.677 250.96 471.677 250.48 471.677 249.92C471.583 245.307 470.545 240.762 468.628 236.566C466.71 232.369 463.953 228.61 460.527 225.52C454.827 220.57 447.297 217.46 443.347 210.99C441.507 207.99 440.607 204.43 438.597 201.53C434.817 196.05 427.877 193.82 421.307 193.03C414.737 192.24 407.987 192.5 401.707 190.44C397.247 188.98 393.207 186.39 388.707 185.09C383.804 183.778 378.617 183.997 373.842 185.719C369.068 187.44 364.934 190.581 361.997 194.72C359.627 198.18 358.077 202.32 354.877 205.02C348.327 210.56 337.217 208.16 331.477 214.54C328.327 218.05 327.967 222.83 328.347 227.71C328.347 227.77 328.347 227.83 328.347 227.89C328.347 228.26 328.417 228.64 328.457 229.02C328.457 229.2 328.457 229.38 328.457 229.55C328.457 229.72 328.457 229.93 328.527 230.12C328.727 231.87 328.977 233.61 329.197 235.29C329.197 235.55 329.257 235.8 329.287 236.06L329.467 237.63C329.467 238.01 329.527 238.39 329.567 238.77C329.607 239.15 329.637 239.77 329.667 240.19C329.697 240.61 329.667 240.93 329.737 241.31C330.378 254.636 327.553 267.901 321.537 279.81C316.127 290.42 308.087 300.2 306.687 312.05C306.469 313.992 306.415 315.949 306.527 317.9C306.527 318.13 306.527 318.36 306.527 318.59C306.527 318.82 306.587 319.29 306.617 319.64C306.647 319.99 306.697 320.45 306.747 320.85C306.747 321.08 306.807 321.31 306.837 321.54C306.907 322.07 306.987 322.6 307.077 323.14L307.137 323.48C308.557 331.56 311.777 339.48 313.487 347.64C314.128 350.649 314.556 353.7 314.767 356.77C314.762 356.79 314.762 356.81 314.767 356.83C314.827 357.83 314.877 358.78 314.907 359.76C314.907 361.08 314.907 362.41 314.907 363.76C312.192 364.803 309.409 365.659 306.577 366.32C301.577 367.04 286.907 380.04 287.977 383.32C289.047 386.6 281.417 409.32 281.207 410.01L269.207 493.01C269.207 493.01 262.837 499.15 264.827 503.12C266.817 507.09 264.437 513.95 264.437 513.95C264.437 513.95 253.677 518.64 256.067 521.53C258.457 524.42 257.367 529.83 255.727 533.44C254.087 537.05 251.397 543.55 255.727 544.63C260.057 545.71 256.467 559.8 256.467 559.8C256.467 559.8 271.557 558.06 270.467 567.02C270.107 569.87 281.017 577.71 285.567 580.85V623.99C279.457 622.28 272.277 620.06 267.697 617.92C258.407 613.59 206.217 605.29 194.777 630.2C183.337 655.11 210.507 688.32 217.297 691.93C217.297 691.93 223.737 696.98 225.167 699.51C226.597 702.04 234.817 702.76 234.817 702.76C234.817 702.76 243.397 706.76 245.537 708.89C247.117 710.49 260.187 714.64 275.677 717.89C275.677 717.89 263.167 746.69 283.577 744.32C303.987 741.95 313.927 731.9 328.317 731.9C334.067 731.9 344.747 731.09 355.497 730.13C358.197 730.608 360.868 731.239 363.497 732.02C369.553 733.924 375.773 735.263 382.077 736.02C382.077 736.02 398.167 744.68 406.747 742.51C407.454 742.311 408.114 741.971 408.687 741.51H408.887C410.447 741.12 412.217 739.51 414.057 737.08C424.787 738.18 437.057 739.74 441.617 741.52C450.507 744.95 514.097 740.2 514.097 740.2C514.097 740.2 555.177 741.01 566.947 744.57C578.717 748.13 574.537 708.22 552.817 703.73C547.019 702.567 541.12 701.984 535.207 701.99C536.711 700.439 538.086 698.766 539.317 696.99C547.137 696.28 552.317 695.84 552.317 695.84C552.317 695.84 573.047 685.73 584.847 679.59C592.381 675.492 599.148 670.119 604.847 663.71C604.847 663.71 615.207 657.21 619.497 654.71C623.787 652.21 625.927 643.88 625.927 643.88C658.437 570.23 575.867 579.99 575.867 579.99ZM482.787 487.61C482.787 486.4 482.787 485.18 482.787 483.97C483.947 484.79 483.777 486.08 482.787 487.6V487.61ZM483.127 513.14C483.997 514.28 484.837 515.32 485.437 516.14C487.747 519.14 483.567 520.54 483.867 525.51C483.937 526.62 484.037 528.17 484.137 529.89C483.697 522.72 483.337 516.82 483.127 513.13V513.14Z" fill="url(#paint0_linear)"/>
<path id="Vector_11" d="M297.067 627.06C297.067 627.06 277.067 622.41 267.757 618.12C258.447 613.83 206.277 605.61 194.837 630.28C183.397 654.95 210.567 687.82 217.357 691.4C224.147 694.98 290.277 645.99 290.277 645.99L342.437 667.99L352.437 633.85L297.067 627.06Z" fill="black"/>
<path id="Vector_12" d="M509.377 633.85H355.967C335.626 633.85 319.137 650.339 319.137 670.68V676.01C319.137 696.351 335.626 712.84 355.967 712.84H509.377C529.717 712.84 546.207 696.351 546.207 676.01V670.68C546.207 650.339 529.717 633.85 509.377 633.85Z" fill="black"/>
<path id="Vector_13" opacity="0.1" d="M546.207 673.34C546.214 681.11 543.925 688.708 539.627 695.18C538.165 697.373 536.49 699.416 534.627 701.28C530.963 704.954 526.61 707.867 521.817 709.853C517.023 711.838 511.885 712.857 506.697 712.85H358.637C348.161 712.85 338.114 708.689 330.706 701.281C323.298 693.873 319.137 683.826 319.137 673.35C319.137 662.874 323.298 652.827 330.706 645.419C338.114 638.012 348.161 633.85 358.637 633.85H506.707C517.181 633.85 527.227 638.01 534.634 645.416C542.041 652.821 546.204 662.866 546.207 673.34V673.34Z" fill="black"/>
<path id="Vector_14" d="M422.577 675.65C422.577 675.65 399.807 681.5 381.227 681.24C362.647 680.98 275.737 717.09 275.737 717.09C275.737 717.09 263.227 745.61 283.637 743.25C304.047 740.89 313.987 730.99 328.377 730.99C342.767 730.99 388.037 725.99 388.037 725.99L431.597 693.81L422.577 675.65Z" fill="#FBBEBE"/>
<path id="Vector_15" d="M436.827 406.52L395.987 414.57L393.337 415.1C393.337 415.1 361.047 406.52 359.977 405.8C358.907 405.08 329.597 365.59 329.597 365.59C329.597 365.59 344.417 365.75 356.057 359.04C356.477 358.8 356.887 358.54 357.297 358.29C362.415 355.203 366.303 350.435 368.297 344.8C368.507 344.21 368.687 343.6 368.857 342.96C370.097 338.18 370.177 332.39 368.517 325.38C364.517 308.71 373.717 304.12 385.907 304.52C403.517 305.1 427.487 316.09 427.487 316.09C427.797 321.7 429.072 327.214 431.257 332.39C431.447 332.87 431.657 333.39 431.877 333.85C436.25 343.719 443.917 351.762 453.567 356.6L454.857 357.24C456.157 357.86 457.527 358.45 458.947 358.98C490.087 370.78 436.827 406.52 436.827 406.52Z" fill="#FBBEBE"/>
<path id="Vector_16" opacity="0.1" d="M431.917 333.85C424.15 342.643 413.615 348.521 402.053 350.512C390.492 352.503 378.597 350.488 368.337 344.8C370.097 339.68 370.427 333.31 368.557 325.38C358.907 284.63 427.557 316.09 427.557 316.09C427.895 322.229 429.374 328.252 431.917 333.85V333.85Z" fill="black"/>
<path id="Vector_17" d="M444.806 297.65C444.823 307.28 442.119 316.719 437.006 324.88C435.342 327.557 433.43 330.071 431.296 332.39C422.289 342.262 409.778 348.22 396.436 348.99C395.436 349.06 394.366 349.09 393.326 349.09C383.147 349.09 373.195 346.072 364.731 340.416C356.267 334.76 349.67 326.722 345.774 317.317C341.879 307.912 340.859 297.563 342.845 287.579C344.831 277.595 349.733 268.424 356.932 261.225C364.13 254.027 373.301 249.125 383.285 247.139C393.269 245.153 403.618 246.172 413.023 250.068C422.428 253.964 430.467 260.561 436.122 269.025C441.778 277.489 444.796 287.44 444.796 297.62L444.806 297.65Z" fill="#FBBEBE"/>
<path id="Vector_18" opacity="0.1" d="M436.827 406.52L395.987 414.57L393.337 415.1C393.337 415.1 361.047 406.52 359.977 405.8C358.907 405.08 329.597 365.59 329.597 365.59C329.597 365.59 344.417 365.75 356.057 359.04C356.477 358.8 356.887 358.54 357.297 358.29C360.997 362.29 373.107 373.6 392.137 373.52C394.58 373.521 397.019 373.344 399.437 372.99C405.177 372.11 410.967 371.54 416.747 370.99C427.817 369.83 444.747 366.47 453.637 356.69L454.927 357.33C456.227 357.95 457.597 358.54 459.017 359.07C490.087 370.78 436.827 406.52 436.827 406.52Z" fill="black"/>
<path id="Vector_19" d="M482.937 510.89C483.287 518.76 489.017 607.4 489.017 607.4H310.647L311.857 551.59L312.857 506.95L313.177 492.3L314.607 441.55L309.437 436.99L281.337 412.23C281.547 411.57 289.167 388.98 288.107 385.8C287.047 382.62 301.697 369.72 306.707 369C309.554 368.339 312.354 367.487 315.087 366.45C323.517 363.45 334.767 359.13 336.007 359.81C337.757 360.75 355.297 359.12 356.007 359.05C356.007 359.05 368.947 375.78 392.067 375.68C394.501 375.668 396.931 375.474 399.337 375.1C405.077 374.22 410.867 373.65 416.647 373.05C428.277 371.84 446.357 368.19 454.827 357.25C454.827 357.25 458.917 357.42 466.777 359.81C474.637 362.2 484.297 362.21 484.297 362.21C488.952 363.505 493.494 365.177 497.877 367.21C502.04 369.187 506.341 370.858 510.747 372.21C510.747 372.21 518.967 374.35 521.117 395.08C523.267 415.81 525.437 427.61 525.437 427.61L482.937 464.42C482.937 464.42 482.587 502.99 482.937 510.89Z" fill="black"/>
<path id="Vector_20" d="M281.347 572.73L287.597 582.74L311.007 590.99L327.097 561.65L312.267 551.64L288.497 542.35L274.917 550.21L281.347 572.73Z" fill="#FBBEBE"/>
<path id="Vector_21" d="M481.147 622.05C481.147 622.05 514.387 619.55 527.977 604.18C541.567 588.81 575.867 580.59 575.867 580.59C575.867 580.59 658.437 570.94 625.867 643.86C625.867 643.86 623.727 652.08 619.437 654.58C615.147 657.08 604.787 663.52 604.787 663.52L477.957 652.44L481.147 622.05Z" fill="black"/>
<path id="Vector_22" opacity="0.1" d="M546.207 673.34C546.215 681.11 543.925 688.708 539.627 695.18C518.287 697.07 471.027 701.51 461.137 704.27C448.987 707.64 424.397 701.77 421.707 701.11L421.457 701.05C421.457 701.05 416.717 686.67 414.457 677.47C413.457 673.29 412.927 670.18 413.587 669.95C415.737 669.24 435.397 663.87 435.037 666.95C434.677 670.03 494.037 643.89 494.037 643.89L495.857 666.77C501.887 673.67 546.207 663.41 546.207 673.34Z" fill="black"/>
<path id="Vector_23" d="M607.327 654.22L604.827 663.52C599.117 669.874 592.35 675.192 584.827 679.24C573.027 685.32 552.297 695.33 552.297 695.33C552.297 695.33 476.167 701.76 463.297 705.33C450.427 708.9 423.617 702.11 423.617 702.11C423.617 702.11 413.617 671.73 415.757 671.01C417.897 670.29 437.557 664.94 437.207 668.01C436.857 671.08 496.207 644.95 496.207 644.95L607.327 654.22Z" fill="black"/>
<path id="Vector_24" d="M395.356 734.36C395.356 734.36 432.776 736.97 441.676 740.36C450.576 743.75 514.156 739.06 514.156 739.06C514.156 739.06 555.236 739.86 567.006 743.38C578.776 746.9 574.596 707.38 552.876 702.95C531.156 698.52 500.546 705.04 500.546 705.04C500.546 705.04 466.006 700.59 461.816 700.04C457.626 699.49 430.036 700.29 430.036 700.29L395.356 734.36Z" fill="#FBBEBE"/>
<path id="Vector_25" opacity="0.1" d="M248.307 635.71C248.307 635.71 297.767 640.16 311.367 648.27L248.307 635.71Z" fill="black"/>
<path id="Vector_26" opacity="0.1" d="M556.806 603.27C556.806 603.27 518.076 612.69 502.896 626.55L556.806 603.27Z" fill="black"/>
<path id="Vector_27" opacity="0.1" d="M251.187 624.46C251.977 624.72 273.957 627.6 273.427 629.69C272.897 631.78 251.187 624.46 251.187 624.46Z" fill="black"/>
<path id="Vector_28" opacity="0.1" d="M216.646 679.6L219.507 690.33C219.507 690.33 225.936 695.33 227.366 697.83C228.796 700.33 237.016 701.05 237.016 701.05C237.016 701.05 245.596 704.98 247.746 707.12C249.896 709.26 273.116 716.06 294.926 718.92C316.736 721.78 357.117 727.14 365.697 730C371.759 731.88 377.982 733.196 384.286 733.93C384.286 733.93 400.367 742.51 408.947 740.37C417.527 738.23 432.176 699.26 432.176 699.26C432.176 699.26 375.706 686.04 373.916 681.75C372.126 677.46 317.796 657.45 317.796 657.45L285.626 658.21L216.646 679.6Z" fill="black"/>
<path id="Vector_29" d="M214.497 680.67L217.357 691.4C217.357 691.4 223.797 696.4 225.227 698.9C226.657 701.4 234.877 702.12 234.877 702.12C234.877 702.12 243.457 706.05 245.597 708.2C247.737 710.35 270.977 717.13 292.777 719.99C314.577 722.85 354.977 728.21 363.557 731.07C369.617 732.944 375.837 734.256 382.137 734.99C382.137 734.99 398.227 743.56 406.807 741.42C415.387 739.28 430.037 700.31 430.037 700.31C430.037 700.31 373.557 687.09 371.777 682.8C369.997 678.51 290.277 645.99 290.277 645.99L265.277 640.27L214.497 680.67Z" fill="black"/>
<path id="Vector_30" d="M287.587 408.66L281.337 412.24L269.337 494.45C269.337 494.45 262.967 500.53 264.957 504.45C266.947 508.37 264.567 515.17 264.567 515.17C264.567 515.17 253.807 519.82 256.197 522.68C258.587 525.54 257.497 530.9 255.857 534.47C254.217 538.04 251.527 544.47 255.857 545.55C260.187 546.63 256.597 560.55 256.597 560.55C256.597 560.55 271.687 558.83 270.597 567.69C270.147 571.27 287.657 582.69 287.657 582.69C287.657 582.69 267.757 546.59 312.337 551.59L316.167 531.24C316.167 531.24 319.997 519.78 316.167 516.24C312.337 512.7 317.027 495.69 317.027 495.69L317.867 421.88L287.587 408.66Z" fill="black"/>
<path id="Vector_31" opacity="0.1" d="M277.877 514.83C278.667 516.14 302.737 518.83 304.307 523.1C305.877 527.37 277.877 514.83 277.877 514.83Z" fill="black"/>
<path id="Vector_32" opacity="0.1" d="M270.287 535.24C270.287 535.24 273.557 525.03 281.287 526.86C289.017 528.69 270.287 535.24 270.287 535.24Z" fill="black"/>
<path id="Vector_33" opacity="0.1" d="M266.106 550.15C266.106 550.15 271.856 536.54 279.706 537.59C287.556 538.64 266.106 550.15 266.106 550.15Z" fill="black"/>
<path id="Vector_34" d="M527.977 549.85L525.467 564.85C525.467 564.85 499.737 612.04 495.087 612.75C490.437 613.46 465.087 581.3 465.087 581.3L458.297 549.84L485.027 544.77L496.897 533.04C496.897 533.04 526.897 535.91 527.977 549.85Z" fill="#FBBEBE"/>
<path id="Vector_35" d="M515.817 420.82L525.467 427.61V463.71C525.467 463.71 532.977 462.99 531.187 466.93C529.397 470.87 525.827 473 529.047 476.58C532.267 480.16 531.547 486.94 528.687 487.66C525.827 488.38 520.827 491.23 525.467 493.02C530.107 494.81 532.977 498.02 532.977 500.17C532.977 502.32 533.337 505.53 531.547 508.03C529.757 510.53 527.977 516.25 530.117 518.4C532.257 520.55 528.327 531.62 528.327 531.62C528.327 531.62 535.127 549.14 528.687 554.14C528.687 554.14 525.827 564.14 525.467 564.86C525.467 564.86 529.977 530.07 485.007 544.78C485.007 544.78 484.177 531.52 483.867 526.61C483.557 521.7 487.747 520.26 485.437 517.33C483.127 514.4 477.347 507.67 480.077 505.89C482.807 504.11 481.867 500.89 480.787 498.38C479.707 495.87 475.937 495.88 479.357 492.84C482.777 489.8 484.807 486.95 482.797 485.52C480.787 484.09 477.297 479.43 480.077 477.29C482.857 475.15 482.937 444.05 482.937 444.05C482.937 444.05 494.377 398.3 515.817 420.82Z" fill="black"/>
<path id="Vector_36" opacity="0.1" d="M511.277 482.32C511.277 482.32 525.017 478.59 525.467 482.32C525.917 486.05 511.277 482.32 511.277 482.32Z" fill="black"/>
<path id="Vector_37" opacity="0.1" d="M495.837 492.59C495.837 492.59 514.677 487.88 517.027 491.54C519.377 495.2 495.837 492.59 495.837 492.59Z" fill="black"/>
<path id="Vector_38" opacity="0.1" d="M491.646 502.53C491.646 502.53 519.906 498.6 521.736 504.36C523.566 510.12 491.646 502.53 491.646 502.53Z" fill="black"/>
<path id="Vector_39" opacity="0.1" d="M495.837 514.83C496.887 515.09 523.047 516.92 523.567 521.89C524.087 526.86 495.837 514.83 495.837 514.83Z" fill="black"/>
<path id="Vector_40" d="M499.247 530.94H296.107C290.324 530.94 285.637 535.628 285.637 541.41V647.74C285.637 653.522 290.324 658.21 296.107 658.21H499.247C505.029 658.21 509.717 653.522 509.717 647.74V541.41C509.717 535.628 505.029 530.94 499.247 530.94Z" fill="#BDBDBD"/>
<path id="Vector_41" d="M397.677 602.84C402.239 602.84 405.937 599.142 405.937 594.58C405.937 590.018 402.239 586.32 397.677 586.32C393.115 586.32 389.417 590.018 389.417 594.58C389.417 599.142 393.115 602.84 397.677 602.84Z" fill="#E7EFFD"/>
<path id="Vector_42" opacity="0.1" d="M323.157 452.93C323.157 452.93 344.637 469.35 361.247 456.84C361.247 456.84 333.167 459.39 323.157 452.93Z" fill="black"/>
<path id="Vector_43" opacity="0.1" d="M431.917 457.35C431.917 457.35 453.387 473.76 469.997 461.25C469.997 461.25 441.927 463.81 431.917 457.35Z" fill="black"/>
<path id="Vector_44" opacity="0.1" d="M444.806 297.65C444.823 307.28 442.119 316.719 437.006 324.88C436.576 310.55 433.206 296.21 425.406 284.24C418.266 273.24 396.556 254.05 381.636 259.4C380.076 259.972 378.672 260.904 377.539 262.12C376.406 263.336 375.576 264.803 375.116 266.4C373.636 272.02 377.966 274.4 380.746 278.83C385.46 286.506 387.303 295.604 385.946 304.51C385.757 305.709 385.507 306.897 385.196 308.07C382.846 316.89 377.466 326.98 383.016 334.21C386.886 339.21 395.206 340.99 396.336 347.21C396.44 347.797 396.473 348.395 396.436 348.99C396.176 353.2 392.586 356.91 391.016 361.04C389.176 365.91 390.216 370.75 392.126 375.64C394.606 382.02 398.566 388.47 399.526 395.21C400.486 401.95 398.416 408.21 395.976 414.54C393.666 420.54 390.976 426.49 390.076 432.74C388.346 444.62 392.706 458.36 385.226 467.74C384.466 468.875 383.293 469.668 381.956 469.95C377.166 470.45 377.956 461.84 374.126 458.95C374.536 463.95 374.926 469.17 373.126 473.85C371.326 478.53 366.586 482.51 361.626 481.72L359.916 470.49C356.541 473.812 352.48 476.355 348.016 477.94C349.773 465.998 354.004 454.554 360.436 444.34C347.846 450.4 340.506 463.52 333.956 475.86C329.876 483.57 325.646 491.99 327.076 500.6C327.656 504.11 329.166 507.45 329.496 510.98C329.826 514.51 328.546 518.64 325.256 519.98C322.386 521.15 319.036 519.75 316.966 517.41L316.606 516.98C316.406 516.72 316.216 516.45 316.036 516.18C315.679 515.637 315.362 515.069 315.086 514.48C314.192 512.366 313.522 510.164 313.086 507.91L312.866 506.91C309.536 492.3 306.536 477.23 308.976 462.45C309.876 457.01 311.516 451.61 311.316 446.09C311.166 442.977 310.532 439.907 309.436 436.99C306.516 428.81 300.896 421.3 297.696 413.06C297.662 413.004 297.635 412.943 297.616 412.88C295.936 408.52 295.106 403.07 298.216 399.57C299.816 397.76 302.216 396.85 304.216 395.57C310.436 391.52 313.216 383.83 314.366 376.49C314.884 373.182 315.145 369.838 315.146 366.49C323.576 363.49 334.826 359.17 336.066 359.85C337.816 360.79 355.356 359.16 356.066 359.09C361.406 356.01 366.066 351.48 368.346 344.85C368.556 344.26 368.736 343.65 368.906 343.01C360.9 338.69 354.182 332.326 349.436 324.565C344.69 316.804 342.086 307.923 341.889 298.828C341.691 289.733 343.908 280.748 348.314 272.789C352.719 264.829 359.155 258.18 366.966 253.517C374.778 248.854 383.686 246.345 392.782 246.246C401.879 246.146 410.84 248.459 418.751 252.949C426.663 257.44 433.244 263.947 437.822 271.808C442.401 279.669 444.814 288.603 444.816 297.7L444.806 297.65Z" fill="black"/>
<path id="Vector_45" d="M385.197 305.93C382.837 314.75 377.467 324.84 383.027 332.08C386.897 337.08 395.217 338.85 396.327 345.08C397.217 350.08 392.807 354.2 391.027 358.9C386.787 370.13 397.847 381.17 399.527 393.06C401.357 405.96 391.957 417.71 390.087 430.6C388.357 442.48 392.717 456.21 385.237 465.6C384.481 466.739 383.306 467.534 381.967 467.81C377.177 468.32 377.967 459.71 374.137 456.81C374.547 461.81 374.937 467.03 373.137 471.71C371.337 476.39 366.597 480.36 361.637 479.58L359.927 468.34C356.553 471.664 352.491 474.207 348.027 475.79C349.784 463.853 354.011 452.412 360.437 442.2C347.847 448.26 340.517 461.38 333.967 473.71C329.877 481.42 325.657 489.85 327.077 498.46C327.657 501.97 329.167 505.3 329.497 508.84C329.827 512.38 328.547 516.49 325.257 517.84C322.257 519.09 318.627 517.43 316.607 514.84C314.587 512.25 313.807 508.95 313.077 505.76C309.657 490.84 306.467 475.44 308.957 460.34C309.857 454.89 311.497 449.49 311.297 443.98C310.867 431.91 301.957 421.98 297.617 410.75C295.927 406.38 295.107 400.94 298.217 397.44C299.817 395.63 302.217 394.72 304.217 393.44C310.427 389.38 313.217 381.7 314.357 374.36C315.586 366.425 315.359 358.333 313.687 350.48C311.177 338.73 305.417 327.25 306.847 315.32C308.247 303.58 316.287 293.9 321.697 283.39C328.657 269.787 331.328 254.393 329.357 239.24C328.427 232.19 326.797 224.03 331.577 218.76C337.317 212.44 348.427 214.82 354.977 209.34C358.177 206.67 359.727 202.56 362.097 199.14C365.059 195.031 369.199 191.919 373.968 190.216C378.738 188.512 383.913 188.297 388.807 189.6C393.307 190.89 397.347 193.45 401.807 194.9C408.087 196.9 414.807 196.68 421.407 197.47C428.007 198.26 434.917 200.47 438.697 205.88C440.697 208.76 441.607 212.27 443.447 215.25C447.397 221.65 454.927 224.73 460.627 229.64C465.515 233.998 469.011 239.7 470.68 246.033C472.348 252.365 472.114 259.049 470.007 265.25C466.607 274.72 458.737 283.1 459.407 293.14C459.677 297.27 461.407 301.32 460.867 305.41C459.287 316.8 442.757 319.07 437.047 329.05C437.507 312.69 434.367 295.84 425.437 282.13C418.297 271.13 396.587 251.93 381.667 257.28C380.108 257.855 378.706 258.788 377.574 260.004C376.441 261.219 375.61 262.684 375.147 264.28C373.667 269.89 377.997 272.28 380.777 276.71C383.439 281.034 385.202 285.85 385.961 290.87C386.72 295.89 386.461 301.012 385.197 305.93Z" fill="#5C4448"/>
<g id="avatar_2" opacity="0.2">
<path id="Vector_46" opacity="0.2" d="M315.087 362.61C315.212 357.472 314.732 352.337 313.657 347.31C311.527 337.31 307.067 327.52 306.657 317.48C306.077 328.66 311.307 339.48 313.657 350.48C314.509 354.47 314.988 358.531 315.087 362.61V362.61Z" fill="black"/>
<path id="Vector_47" opacity="0.2" d="M357.687 443.76C358.557 442.17 359.457 440.59 360.427 439.05C347.847 445.11 340.507 458.23 333.957 470.57C330.167 477.7 326.277 485.46 326.857 493.4C327.337 486.59 330.687 479.95 333.957 473.78C340.017 462.37 346.757 450.31 357.687 443.76Z" fill="black"/>
<path id="Vector_48" opacity="0.2" d="M329.437 508.43C329.057 511.13 327.717 513.69 325.257 514.7C322.257 515.94 318.627 514.29 316.617 511.7C314.607 509.11 313.807 505.82 313.077 502.62C310.637 491.96 308.317 481.04 308.077 470.17C307.837 482.1 310.377 494.12 313.077 505.84C313.807 509.03 314.597 512.34 316.617 514.92C318.637 517.5 322.227 519.16 325.257 517.92C328.547 516.57 329.837 512.46 329.507 508.92C329.437 508.75 329.437 508.59 329.437 508.43Z" fill="black"/>
<path id="Vector_49" opacity="0.2" d="M386.357 295.19C386.241 297.757 385.852 300.305 385.197 302.79C383.457 309.32 380.057 316.56 380.667 322.79C381.147 317.35 383.747 311.43 385.197 305.98C386.125 302.462 386.516 298.825 386.357 295.19Z" fill="black"/>
<path id="Vector_50" opacity="0.2" d="M329.947 247.47C330.031 243.657 329.824 239.842 329.327 236.06C328.957 233.28 328.487 230.32 328.327 227.43C328.097 231.28 328.797 235.43 329.327 239.28C329.684 241.997 329.891 244.731 329.947 247.47V247.47Z" fill="black"/>
<path id="Vector_51" opacity="0.2" d="M396.337 345.18C396.337 345.09 396.337 345.02 396.267 344.93C395.507 348.65 392.447 352.05 391.037 355.79C390.2 358.022 389.899 360.42 390.157 362.79C390.278 361.496 390.574 360.225 391.037 359.01C392.807 354.3 397.217 350.14 396.337 345.18Z" fill="black"/>
<path id="Vector_52" opacity="0.2" d="M311.297 440.84C310.857 428.77 301.957 418.84 297.607 407.61C296.913 405.842 296.443 403.995 296.207 402.11C295.966 405.087 296.446 408.078 297.607 410.83C301.887 421.91 310.547 431.66 311.247 443.46C311.297 442.59 311.327 441.71 311.297 440.84Z" fill="black"/>
<path id="Vector_53" opacity="0.2" d="M425.437 278.99C418.287 267.99 396.587 248.79 381.667 254.14C380.107 254.714 378.703 255.647 377.569 256.863C376.435 258.079 375.602 259.544 375.137 261.14C374.785 262.364 374.747 263.658 375.027 264.9C375.027 264.72 375.087 264.54 375.137 264.36C375.6 262.763 376.433 261.297 377.567 260.081C378.701 258.865 380.106 257.933 381.667 257.36C396.587 252.01 418.287 271.24 425.437 282.21C433.517 294.63 436.847 309.62 437.067 324.49C437.277 308.54 434.087 292.27 425.437 278.99Z" fill="black"/>
<path id="Vector_54" opacity="0.2" d="M460.837 302.24C459.267 313.6 442.837 315.89 437.067 325.81C437.067 326.9 437.067 328 437.067 329.09C442.767 319.09 459.307 316.84 460.877 305.45C461.017 304.331 461.017 303.199 460.877 302.08C460.869 302.135 460.856 302.188 460.837 302.24V302.24Z" fill="black"/>
<path id="Vector_55" opacity="0.2" d="M469.977 262.07C466.577 271.55 458.707 279.92 459.377 289.97C459.377 290.11 459.377 290.26 459.377 290.41C460.117 281.56 466.847 273.88 469.927 265.29C471.314 261.366 471.909 257.206 471.677 253.05C471.568 256.125 470.995 259.166 469.977 262.07V262.07Z" fill="black"/>
<path id="Vector_56" opacity="0.2" d="M385.237 462.48C384.481 463.622 383.306 464.42 381.967 464.7C377.177 465.21 377.967 456.6 374.137 453.7C374.237 454.84 374.327 455.99 374.387 457.14C377.947 460.22 377.287 468.41 381.967 467.91C382.63 467.775 383.261 467.51 383.822 467.131C384.383 466.752 384.864 466.266 385.237 465.7C389.507 460.34 389.917 453.57 389.807 446.54C389.697 452.4 388.847 457.99 385.237 462.48Z" fill="black"/>
<path id="Vector_57" opacity="0.2" d="M373.127 468.6C371.307 473.29 366.587 477.26 361.617 476.47C361.05 472.73 360.483 468.983 359.917 465.23C356.689 468.398 352.837 470.86 348.607 472.46C348.387 473.6 348.177 474.75 348.007 475.9C352.474 474.317 356.539 471.774 359.917 468.45C360.483 472.203 361.05 475.95 361.617 479.69C366.617 480.47 371.307 476.51 373.127 471.82C374.244 468.553 374.69 465.094 374.437 461.65C374.384 464.023 373.942 466.371 373.127 468.6V468.6Z" fill="black"/>
<path id="Vector_58" opacity="0.2" d="M390.088 427.48C389.702 430.501 389.558 433.547 389.658 436.59C389.674 434.62 389.817 432.652 390.088 430.7C391.878 418.41 400.488 407.16 399.708 394.97C399.018 405.99 391.718 416.28 390.088 427.48Z" fill="black"/>
</g>
</g>
<defs>
<linearGradient id="paint0_linear" x1="412.787" y1="744.62" x2="412.787" y2="184.19" gradientUnits="userSpaceOnUse">
<stop stop-color="#808080" stop-opacity="0.25"/>
<stop offset="0.54" stop-color="#808080" stop-opacity="0.12"/>
<stop offset="1" stop-color="#808080" stop-opacity="0.1"/>
</linearGradient>
</defs>
</svg>
