<svg xmlns="http://www.w3.org/2000/svg">
    <symbol 
      id="github" 
      width="24" 
      height="24" 
      viewBox="0 0 24 24">
      <path fill-rule="evenodd" d="M8 0C3.58 0 0 3.58 0 8c0 3.54 2.29 6.53 5.47 7.59.4.07.55-.17.55-.38 0-.19-.01-.82-.01-1.49-2.01.37-2.53-.49-2.69-.94-.09-.23-.48-.94-.82-1.13-.28-.15-.68-.52-.01-.53.63-.01 1.08.58 1.23.82.72 1.21 1.87.87 2.33.66.07-.52.28-.87.51-1.07-1.78-.2-3.64-.89-3.64-3.95 0-.87.31-1.59.82-2.15-.08-.2-.36-1.02.08-2.12 0 0 .67-.21 2.2.82.64-.18 1.32-.27 2-.27.68 0 1.36.09 2 .27 1.53-1.04 2.2-.82 2.2-.82.44 1.1.16 1.92.08 2.12.51.56.82 1.27.82 2.15 0 3.07-1.87 3.75-3.65 3.95.29.25.54.73.54 1.48 0 1.07-.01 1.93-.01 2.2 0 .21.15.46.55.38A8.013 8.013 0 0016 8c0-4.42-3.58-8-8-8z"></path>
    </symbol>

    <symbol 
      id="linkedin" 
      width="16" 
      height="16" 
      viewBox="0 0 24 24">
		  <path d="M20.447 20.452h-3.554v-5.569c0-1.328-.027-3.037-1.852-3.037-1.853 0-2.136 1.445-2.136 2.939v5.667H9.351V9h3.414v1.561h.046c.477-.9 1.637-1.85 3.37-1.85 3.601 0 4.267 2.37 4.267 5.455v6.286zM5.337 7.433c-1.144 0-2.063-.926-2.063-2.065 0-1.138.92-2.063 2.063-2.063 1.14 0 2.064.925 2.064 2.063 0 1.139-.925 2.065-2.064 2.065zm1.782 13.019H3.555V9h3.564v11.452zM22.225 0H1.771C.792 0 0 .774 0 1.729v20.542C0 23.227.792 24 1.771 24h20.451C23.2 24 24 23.227 24 22.271V1.729C24 .774 23.2 0 22.222 0h.003z"></path>
    </symbol>

    <symbol 
      id="twitter" 
      width="16" 
      height="16" 
      viewBox="0 0 24 24">
      <path fill-rule="evenodd" clip-rule="evenodd" d="M8 3C9.10457 3 10 3.89543 10 5V8H16C17.1046 8 18 8.89543 18 10C18 11.1046 17.1046 12 16 12H10V14C10 15.6569 11.3431 17 13 17H16C17.1046 17 18 17.8954 18 19C18 20.1046 17.1046 21 16 21H13C9.13401 21 6 17.866 6 14V5C6 3.89543 6.89543 3 8 3Z" fill="currentColor"/>
    </symbol>

    <symbol 
      id="email" 
      width="16" 
      height="16" 
      viewBox="0 0 24 24">
      <path fill-rule="evenodd" clip-rule="evenodd" d="M3.00977 5.83789C3.00977 5.28561 3.45748 4.83789 4.00977 4.83789H20C20.5523 4.83789 21 5.28561 21 5.83789V17.1621C21 18.2667 20.1046 19.1621 19 19.1621H5C3.89543 19.1621 3 18.2667 3 17.1621V6.16211C3 6.11449 3.00333 6.06765 3.00977 6.0218V5.83789ZM5 8.06165V17.1621H19V8.06199L14.1215 12.9405C12.9499 14.1121 11.0504 14.1121 9.87885 12.9405L5 8.06165ZM6.57232 6.80554H17.428L12.7073 11.5263C12.3168 11.9168 11.6836 11.9168 11.2931 11.5263L6.57232 6.80554Z"
      fill="currentColor"/>
    </symbol>

    <symbol
      id="external" 
      width="18" 
      height="18" 
      viewBox="0 0 24 24"
      fill="none">
      <path d="M10.5253 5.49475L10.5206 7.49475L15.0782 7.50541L5.47473 17.0896L6.88752 18.5052L16.5173 8.89479L16.5065 13.5088L18.5065 13.5134L18.5253 5.51345L10.5253 5.49475Z" fill="currentColor"/>
    </symbol>

    <symbol
      id="print" 
      width="16" 
      height="16" 
      viewBox="0 0 24 24"
      fill="none">
      <path fill-rule="evenodd" clip-rule="evenodd" d="M8 4H16V6H8V4ZM18 6H22V18H18V22H6V18H2V6H6V2H18V6ZM20 16H18V14H6V16H4V8H20V16ZM8 16H16V20H8V16ZM8 10H6V12H8V10Z" fill="currentColor"/>
    </symbol>

    <symbol
      id="copy" 
      width="16" 
      height="16" 
      viewBox="0 0 24 24">
      <path fill-rule="evenodd" clip-rule="evenodd" d="M3 19V1H17V5H21V23H7V19H3ZM15 17V3H5V17H15ZM17 7V19H9V21H19V7H17Z" fill="currentColor"/>
    </symbol>
    
  </svg>