<svg xmlns="http://www.w3.org/2000/svg">
  <symbol 
    id="github" 
    width="24" 
    height="24" 
    viewBox="0 0 16 16">
    <path fill-rule="evenodd" d="M8 0C3.58 0 0 3.58 0 8c0 3.54 2.29 6.53 5.47 7.59.4.07.55-.17.55-.38 0-.19-.01-.82-.01-1.49-2.01.37-2.53-.49-2.69-.94-.09-.23-.48-.94-.82-1.13-.28-.15-.68-.52-.01-.53.63-.01 1.08.58 1.23.82.72 1.21 1.87.87 2.33.66.07-.52.28-.87.51-1.07-1.78-.2-3.64-.89-3.64-3.95 0-.87.31-1.59.82-2.15-.08-.2-.36-1.02.08-2.12 0 0 .67-.21 2.2.82.64-.18 1.32-.27 2-.27.68 0 1.36.09 2 .27 1.53-1.04 2.2-.82 2.2-.82.44 1.1.16 1.92.08 2.12.51.56.82 1.27.82 2.15 0 3.07-1.87 3.75-3.65 3.95.29.25.54.73.54 1.48 0 1.07-.01 1.93-.01 2.2 0 .21.15.46.55.38A8.013 8.013 0 0016 8c0-4.42-3.58-8-8-8z"></path>
  </symbol>

<symbol 
  id="linkedin" 
  height="24" 
  viewBox="0 0 24 24" 
  width="24">
    <path d="M20.447 20.452h-3.554v-5.569c0-1.328-.027-3.037-1.852-3.037-1.853 0-2.136 1.445-2.136 2.939v5.667H9.351V9h3.414v1.561h.046c.477-.9 1.637-1.85 3.37-1.85 3.601 0 4.267 2.37 4.267 5.455v6.286zM5.337 7.433c-1.144 0-2.063-.926-2.063-2.065 0-1.138.92-2.063 2.063-2.063 1.14 0 2.064.925 2.064 2.063 0 1.139-.925 2.065-2.064 2.065zm1.782 13.019H3.555V9h3.564v11.452zM22.225 0H1.771C.792 0 0 .774 0 1.729v20.542C0 23.227.792 24 1.771 24h20.451C23.2 24 24 23.227 24 22.271V1.729C24 .774 23.2 0 22.222 0h.003z"/>
  </symbol>

  <symbol
    id="external" 
    width="24" 
    height="24" 
    viewBox="0 0 24 24"
    fill="none">
    <path d="M10.5253 5.49475L10.5206 7.49475L15.0782 7.50541L5.47473 17.0896L6.88752 18.5052L16.5173 8.89479L16.5065 13.5088L18.5065 13.5134L18.5253 5.51345L10.5253 5.49475Z" fill="currentColor"/>
  </symbol>

    <symbol
    id="dev"
    width="24"
    height="24"
    viewBox="0 0 24 24">
    <path d="M7.42 10.05c-.18-.16-.46-.23-.84-.23H6l.02 2.44.04 2.45.56-.02c.41 0 .63-.07.83-.26.24-.24.26-.36.26-2.2 0-1.91-.02-1.96-.29-2.18zM0 4.94v14.12h24V4.94H0zM8.56 15.3c-.44.58-1.06.77-2.53.77H4.71V8.53h1.4c1.67 0 2.16.18 2.6.9.27.43.29.6.32 2.57.05 2.23-.02 2.73-.47 3.3zm5.09-5.47h-2.47v1.77h1.52v1.28l-.72.04-.75.03v1.77l1.22.03 1.2.04v1.28h-1.6c-1.53 0-1.6-.01-1.87-.3l-.3-.28v-3.16c0-3.02.01-3.18.25-3.48.23-.31.25-.31 1.88-.31h1.64v1.3zm4.68 5.45c-.17.43-.64.79-1 .79-.18 0-.45-.15-.67-.39-.32-.32-.45-.63-.82-2.08l-.9-3.39-.45-1.67h.76c.4 0 .75.02.75.05 0 .06 1.16 4.54 1.26 4.83.04.15.32-.7.73-2.3l.66-2.52.74-.04c.4-.02.73 0 .73.04 0 .14-1.67 6.38-1.8 6.68z"/>/>
  </symbol>

  <symbol
    id="menu-icon"
    width="24" 
    height="24" 
    viewBox="0 0 24 24">
    <line x1="2" y1="2" x2="22" y2="2" stroke-width="4" stroke-linecap="square"/>
<line x1="10" y1="12" x2="22" y2="12" stroke-width="4" stroke-linecap="square"/>
<line x1="20" y1="22" x2="22" y2="22" stroke-width="4" stroke-linecap="square"/>
  </symbol>

  <symbol
    id="download"
    width="24"
    height="24"
    viewBox="0 0 24 24"
    fill="none">
    <path
      d="M11 5C11 4.44772 11.4477 4 12 4C12.5523 4 13 4.44772 13 5V12.1578L16.2428 8.91501L17.657 10.3292L12.0001 15.9861L6.34326 10.3292L7.75748 8.91501L11 12.1575V5Z"
      fill="currentColor"
    />
    <path
      d="M4 14H6V18H18V14H20V18C20 19.1046 19.1046 20 18 20H6C4.89543 20 4 19.1046 4 18V14Z"
      fill="currentColor"
    />
  </symbol>
    <symbol
    id="twitter"
    width="24"
    height="24"
    viewBox="0 0 24 24">
    <path
     d="M23.954 4.569c-.885.389-1.83.654-2.825.775 1.014-.611 1.794-1.574 2.163-2.723-.951.555-2.005.959-3.127 1.184-.896-.959-2.173-1.559-3.591-1.559-2.717 0-4.92 2.203-4.92 4.917 0 .39.045.765.127 1.124C7.691 8.094 4.066 6.13 1.64 3.161c-.427.722-.666 1.561-.666 2.475 0 1.71.87 3.213 2.188 4.096-.807-.026-1.566-.248-2.228-.616v.061c0 2.385 1.693 4.374 3.946 4.827-.413.111-.849.171-1.296.171-.314 0-.615-.03-.916-.086.631 1.953 2.445 3.377 4.604 3.417-1.68 1.319-3.809 2.105-6.102 2.105-.39 0-.779-.023-1.17-.067 2.189 1.394 4.768 2.209 7.557 2.209 9.054 0 13.999-7.496 13.999-13.986 0-.209 0-.42-.015-.63.961-.689 1.8-1.56 2.46-2.548l-.047-.02z"
    />
  </symbol>
    <symbol
    id="up"
    width="48" height="18" viewBox="0 0 48 18" fill="none">
    <path d="M2 16L24 3L46 16" stroke="currentColor" stroke-width="4"/>
  </symbol>

  <symbol
  id="mail"
  width="24"
  height="24"
  viewBox="0 0 24 24"
  fill="none">
  <path
    fill-rule="evenodd"
    clip-rule="evenodd"
    d="M3.00977 5.83789C3.00977 5.28561 3.45748 4.83789 4.00977 4.83789H20C20.5523 4.83789 21 5.28561 21 5.83789V17.1621C21 18.2667 20.1046 19.1621 19 19.1621H5C3.89543 19.1621 3 18.2667 3 17.1621V6.16211C3 6.11449 3.00333 6.06765 3.00977 6.0218V5.83789ZM5 8.06165V17.1621H19V8.06199L14.1215 12.9405C12.9499 14.1121 11.0504 14.1121 9.87885 12.9405L5 8.06165ZM6.57232 6.80554H17.428L12.7073 11.5263C12.3168 11.9168 11.6836 11.9168 11.2931 11.5263L6.57232 6.80554Z"
    fill="currentColor"
  />
</symbol>
<symbol 
  id="file"
  width="24" 
  height="24" 
  viewBox="0 0 24 24" 
  fill="none">
    <path d="M7 18H17V16H7V18Z" fill="currentColor" />
    <path d="M17 14H7V12H17V14Z" fill="currentColor" />
    <path d="M7 10H11V8H7V10Z" fill="currentColor" />
    <path fill-rule="evenodd" clip-rule="evenodd" d="M6 2C4.34315 2 3 3.34315 3 5V19C3 20.6569 4.34315 22 6 22H18C19.6569 22 21 20.6569 21 19V9C21 5.13401 17.866 2 14 2H6ZM6 4H13V9H19V19C19 19.5523 18.5523 20 18 20H6C5.44772 20 5 19.5523 5 19V5C5 4.44772 5.44772 4 6 4ZM15 4.10002C16.6113 4.4271 17.9413 5.52906 18.584 7H15V4.10002Z" fill="currentColor" />
</symbol>
    <symbol id="waving-hand"
    width="315" height="315" viewBox="0 0 315 315" fill="none" xmlns="http://www.w3.org/2000/svg">
<path d="M235.757 238.71C238.218 238.218 240.187 237.726 242.647 236.742C245.108 235.757 247.077 235.265 249.046 234.281C253.476 232.312 257.413 229.851 261.351 226.898C269.226 221.484 275.624 214.101 280.546 205.242C285.468 196.875 288.421 187.031 288.913 177.679C289.405 172.757 288.913 168.328 288.421 163.406C287.929 160.945 287.437 158.976 286.944 156.515C286.452 154.054 285.468 152.085 284.976 149.625L284.483 156.515C284.483 158.976 283.991 160.945 283.499 163.406C283.007 167.835 282.022 172.265 281.038 176.203C279.069 184.57 276.116 192.445 271.687 199.828C267.257 207.21 262.335 214.101 255.937 220.5C252.983 223.453 249.538 226.406 246.093 229.359C244.616 230.835 242.647 232.312 240.679 233.789L235.757 238.71Z" fill="#42ADE2"/>
<path d="M237.234 256.429C238.711 257.414 240.68 257.906 242.648 258.398C244.617 258.89 246.094 259.382 248.062 259.382C251.508 259.875 255.445 260.367 259.383 259.875C266.766 259.382 274.641 257.414 281.039 253.968C287.93 250.523 293.836 245.109 297.773 238.71C299.742 235.757 301.711 232.312 303.187 228.867C303.68 227.39 304.172 225.421 304.664 223.453C304.664 221.976 305.156 220.5 305.156 218.531C303.68 220.007 302.695 221.484 301.711 222.468C300.234 223.945 299.25 225.421 298.266 226.406C295.805 228.867 293.836 231.328 291.375 233.296C286.453 237.726 281.531 241.664 275.625 244.617C270.211 247.57 263.812 250.031 257.906 252C254.953 252.984 251.508 253.476 248.062 254.46C246.586 254.953 244.617 254.953 243.141 255.445C240.68 255.937 239.203 255.937 237.234 256.429" fill="#42ADE2"/>
<path d="M126 17.2266C123.54 17.7188 121.571 18.7031 119.11 19.6875C116.649 20.6719 114.68 21.6562 112.711 22.6406C108.282 25.1016 104.344 27.5625 100.407 30.5156C92.5318 36.4219 86.1333 44.2969 81.7036 53.1563C77.2739 62.0156 74.813 71.8594 74.813 81.2109C74.813 86.1328 75.3052 90.5625 76.2896 95.4844C76.7818 97.9453 77.274 99.9141 78.2583 102.375C79.2427 104.836 79.7349 106.805 80.7193 108.773L81.2115 101.883C81.2115 99.4219 81.2114 97.4531 81.7036 94.9922L83.1802 81.7031C84.6568 73.3359 87.6099 64.9688 91.5474 57.0938C95.4849 49.2188 100.407 42.3281 106.313 35.9297C109.266 32.4844 112.711 29.5313 115.665 26.0859C117.141 24.6094 119.11 23.1328 121.079 21.6563L126 17.2266" fill="#42ADE2"/>
<path d="M83.1792 15.2582C81.2104 15.7504 79.7339 16.2426 78.2573 17.227C76.7808 17.7192 74.812 18.7036 73.3354 19.6879C70.3823 21.6567 67.4292 23.6254 64.476 26.0864C59.062 31.0082 54.6323 36.9145 52.1714 43.8051C49.2182 50.6957 48.2339 58.0786 49.2182 65.4614C49.7104 68.9067 50.6948 72.352 51.6792 75.7973C52.1714 77.2739 53.1557 79.2426 53.6479 80.7192C54.6323 82.1957 55.1245 83.6723 56.6011 85.1489V80.227V75.3051C56.6011 71.8598 57.0932 68.9067 57.0932 65.9535C58.0776 59.5551 59.062 53.6489 61.5229 48.2348C63.9839 42.3286 66.937 37.4067 70.3823 31.9926C72.3511 29.5317 74.3198 26.5786 76.2886 24.1176C77.2729 22.6411 78.2573 21.6567 79.7339 20.1801C80.7183 17.7192 82.1948 16.2426 83.1792 15.2582" fill="#42ADE2"/>
<path d="M265.781 88.594C275.625 93.0236 279.07 104.836 274.64 114.68L212.625 244.125L178.171 227.883L240.187 97.9455C244.617 88.1018 255.937 83.6721 265.781 88.594" fill="#FFDD67"/>
<path d="M102.866 191.461L66.4443 174.235L137.319 26.5783C142.241 16.7346 154.054 12.3049 164.39 17.2268C174.233 22.1486 178.663 33.9611 173.741 44.2971L102.866 191.461Z" fill="#FFDD67"/>
<path d="M163.898 16.7354C164.882 17.2276 165.867 17.7198 166.851 18.7042C157.5 16.2432 147.656 20.6729 143.226 29.5323L72.3511 177.189L65.9527 174.235L136.828 26.5792C141.75 16.2432 153.562 11.8136 163.898 16.7354" fill="#EBA352"/>
<path d="M178.172 227.391L140.274 209.18L212.625 58.5706C217.547 48.2347 230.344 43.3128 240.68 48.2347C251.016 53.1566 255.446 65.9534 250.524 76.2894L178.172 227.391Z" fill="#FFDD67"/>
<path d="M240.68 48.7269C241.664 49.2191 242.648 49.7113 243.633 50.6956C234.281 48.2347 223.453 52.6644 219.023 62.016L174.234 156.024L163.406 162.422L212.625 59.0628C217.547 48.2347 229.852 43.805 240.68 48.7269" fill="#EBA352"/>
<path d="M146.18 197.368L108.282 179.157L180.633 28.5477C185.555 18.2117 198.352 13.2899 208.688 18.7039C219.024 23.6258 223.453 36.4227 218.532 46.7586L146.18 197.368Z" fill="#FFDD67"/>
<path d="M208.687 18.2103C209.672 18.7025 210.656 19.6869 211.641 20.1791C202.289 17.7182 191.461 22.1479 187.031 31.4994L136.336 137.812L125.508 144.21L180.633 28.5463C185.555 17.7182 198.352 13.2885 208.687 18.2103" fill="#EBA352"/>
<path d="M265.782 88.593C266.766 89.0852 267.75 89.5773 268.735 90.5617C259.875 88.1008 250.524 92.5305 246.586 101.39L209.672 178.663L198.844 185.062L240.188 98.4367C244.618 88.1008 255.938 83.6711 265.782 88.593Z" fill="#EBA352"/>
<path d="M15.7505 73.8278C29.0396 63.4918 50.6958 74.8122 61.524 110.25C68.9068 134.859 69.8911 142.242 85.6411 149.625L94.5005 131.414C94.5005 131.414 234.282 198.843 228.868 209.672C228.868 209.672 212.133 261.843 183.586 285.961C141.258 322.382 42.3287 283.5 37.899 189.492C35.438 134.859 1.47709 85.1481 15.7505 73.8278Z" fill="#FFDD67"/>
<path d="M15.7505 73.8272C18.2114 71.8585 21.1645 70.8741 24.1177 70.3819C23.6255 70.8741 22.6411 70.8741 22.1489 71.3663C7.38327 82.6866 22.6411 108.773 31.0083 132.398C37.8989 151.101 43.8052 170.296 42.8208 188.999C38.8833 270.702 121.079 309.585 170.297 294.819C122.063 314.999 32.4848 276.608 36.4223 191.46C37.4067 172.757 31.9926 154.546 24.6098 134.858C16.7348 111.233 1.47702 85.1475 15.7505 73.8272" fill="#EBA352"/>
<path d="M81.2109 147.656C111.727 151.102 156.516 194.906 125.016 242.648C148.148 194.414 110.25 161.93 86.1328 150.609C83.6718 148.641 81.2109 147.656 81.2109 147.656" fill="#EBA352"/>
</symbol>
<symbol id="scroll" width="8" height="84" viewBox="0 0 8 84" fill="none" >
<path id="arrow" d="M3.64645 83.3536C3.84171 83.5488 4.15829 83.5488 4.35356 83.3536L7.53554 80.1716C7.7308 79.9763 7.7308 79.6597 7.53554 79.4645C7.34028 79.2692 7.02369 79.2692 6.82843 79.4645L4 82.2929L1.17158 79.4645C0.976314 79.2692 0.659732 79.2692 0.46447 79.4645C0.269207 79.6597 0.269207 79.9763 0.46447 80.1716L3.64645 83.3536ZM3.5 2.18557e-08L3.5 83L4.5 83L4.5 -2.18557e-08L3.5 2.18557e-08Z" fill="currentColor"/>
</symbol>
</svg>