<svg xmlns="http://www.w3.org/2000/svg">
  <symbol 
    id="github" 
    width="24" 
    height="24" 
    viewBox="0 0 16 16">
    <path fill-rule="evenodd" d="M8 0C3.58 0 0 3.58 0 8c0 3.54 2.29 6.53 5.47 7.59.4.07.55-.17.55-.38 0-.19-.01-.82-.01-1.49-2.01.37-2.53-.49-2.69-.94-.09-.23-.48-.94-.82-1.13-.28-.15-.68-.52-.01-.53.63-.01 1.08.58 1.23.82.72 1.21 1.87.87 2.33.66.07-.52.28-.87.51-1.07-1.78-.2-3.64-.89-3.64-3.95 0-.87.31-1.59.82-2.15-.08-.2-.36-1.02.08-2.12 0 0 .67-.21 2.2.82.64-.18 1.32-.27 2-.27.68 0 1.36.09 2 .27 1.53-1.04 2.2-.82 2.2-.82.44 1.1.16 1.92.08 2.12.51.56.82 1.27.82 2.15 0 3.07-1.87 3.75-3.65 3.95.29.25.54.73.54 1.48 0 1.07-.01 1.93-.01 2.2 0 .21.15.46.55.38A8.013 8.013 0 0016 8c0-4.42-3.58-8-8-8z"></path>
  </symbol>

  <symbol 
    id="linkedin" 
    width="24" 
    height="24" 
    viewBox="0 0 24 24">
    <path d="M20.447 20.452h-3.554v-5.569c0-1.328-.027-3.037-1.852-3.037-1.853 0-2.136 1.445-2.136 2.939v5.667H9.351V9h3.414v1.561h.046c.477-.9 1.637-1.85 3.37-1.85 3.601 0 4.267 2.37 4.267 5.455v6.286zM5.337 7.433c-1.144 0-2.063-.926-2.063-2.065 0-1.138.92-2.063 2.063-2.063 1.14 0 2.064.925 2.064 2.063 0 1.139-.925 2.065-2.064 2.065zm1.782 13.019H3.555V9h3.564v11.452zM22.225 0H1.771C.792 0 0 .774 0 1.729v20.542C0 23.227.792 24 1.771 24h20.451C23.2 24 24 23.227 24 22.271V1.729C24 .774 23.2 0 22.222 0h.003z"></path>
  </symbol>

  <symbol
    id="external" 
    width="24" 
    height="24" 
    viewBox="0 0 24 24"
    fill="none">
    <path d="M10.5253 5.49475L10.5206 7.49475L15.0782 7.50541L5.47473 17.0896L6.88752 18.5052L16.5173 8.89479L16.5065 13.5088L18.5065 13.5134L18.5253 5.51345L10.5253 5.49475Z" fill="currentColor"/>
  </symbol>

    <symbol
    id="dev"
    width="24"
    height="24"
    viewBox="0 0 24 24">
    <path d="M7.42 10.05c-.18-.16-.46-.23-.84-.23H6l.02 2.44.04 2.45.56-.02c.41 0 .63-.07.83-.26.24-.24.26-.36.26-2.2 0-1.91-.02-1.96-.29-2.18zM0 4.94v14.12h24V4.94H0zM8.56 15.3c-.44.58-1.06.77-2.53.77H4.71V8.53h1.4c1.67 0 2.16.18 2.6.9.27.43.29.6.32 2.57.05 2.23-.02 2.73-.47 3.3zm5.09-5.47h-2.47v1.77h1.52v1.28l-.72.04-.75.03v1.77l1.22.03 1.2.04v1.28h-1.6c-1.53 0-1.6-.01-1.87-.3l-.3-.28v-3.16c0-3.02.01-3.18.25-3.48.23-.31.25-.31 1.88-.31h1.64v1.3zm4.68 5.45c-.17.43-.64.79-1 .79-.18 0-.45-.15-.67-.39-.32-.32-.45-.63-.82-2.08l-.9-3.39-.45-1.67h.76c.4 0 .75.02.75.05 0 .06 1.16 4.54 1.26 4.83.04.15.32-.7.73-2.3l.66-2.52.74-.04c.4-.02.73 0 .73.04 0 .14-1.67 6.38-1.8 6.68z"/>/>
  </symbol>

  <symbol
    id="menu-icon"
    width="24" 
    height="24" 
    viewBox="0 0 24 24">
    <line x1="2" y1="2" x2="22" y2="2" stroke-width="4" stroke-linecap="square"/>
<line x1="10" y1="12" x2="22" y2="12" stroke-width="4" stroke-linecap="square"/>
<line x1="20" y1="22" x2="22" y2="22" stroke-width="4" stroke-linecap="square"/>
  </symbol>

  <symbol
    id="download"
    width="24"
    height="24"
    viewBox="0 0 24 24"
    fill="none">
    <path
      d="M11 5C11 4.44772 11.4477 4 12 4C12.5523 4 13 4.44772 13 5V12.1578L16.2428 8.91501L17.657 10.3292L12.0001 15.9861L6.34326 10.3292L7.75748 8.91501L11 12.1575V5Z"
      fill="currentColor"
    />
    <path
      d="M4 14H6V18H18V14H20V18C20 19.1046 19.1046 20 18 20H6C4.89543 20 4 19.1046 4 18V14Z"
      fill="currentColor"
    />
  </symbol>
    <symbol
    id="twitter"
    width="24"
    height="24"
    viewBox="0 0 24 24">
    <path
     d="M23.954 4.569c-.885.389-1.83.654-2.825.775 1.014-.611 1.794-1.574 2.163-2.723-.951.555-2.005.959-3.127 1.184-.896-.959-2.173-1.559-3.591-1.559-2.717 0-4.92 2.203-4.92 4.917 0 .39.045.765.127 1.124C7.691 8.094 4.066 6.13 1.64 3.161c-.427.722-.666 1.561-.666 2.475 0 1.71.87 3.213 2.188 4.096-.807-.026-1.566-.248-2.228-.616v.061c0 2.385 1.693 4.374 3.946 4.827-.413.111-.849.171-1.296.171-.314 0-.615-.03-.916-.086.631 1.953 2.445 3.377 4.604 3.417-1.68 1.319-3.809 2.105-6.102 2.105-.39 0-.779-.023-1.17-.067 2.189 1.394 4.768 2.209 7.557 2.209 9.054 0 13.999-7.496 13.999-13.986 0-.209 0-.42-.015-.63.961-.689 1.8-1.56 2.46-2.548l-.047-.02z"
    />
  </symbol>
    <symbol
    id="up"
    width="48" height="18" viewBox="0 0 48 18" fill="none">
    <path d="M2 16L24 3L46 16" stroke="white" stroke-width="4"/>
  </symbol>
  
    
</svg>