<svg width="26" height="78" viewBox="0 0 26 78" fill="none" xmlns="http://www.w3.org/2000/svg">
<g id="logo">
<path id="glrta" d="M14.28 50.9868C16.28 50.9868 17.28 50.1788 17.28 48.5628C17.28 48.1948 17.232 47.8508 17.136 47.5308C17.04 47.2108 16.928 46.9388 16.8 46.7148L11.088 46.7148C11.056 46.8908 11.032 47.0988 11.016 47.3388C10.984 47.5788 10.968 47.8588 10.968 48.1788C10.968 49.1228 11.28 49.8268 11.904 50.2908C12.528 50.7548 13.32 50.9868 14.28 50.9868ZM19.416 43.1388C21.48 43.1388 23.008 43.6668 24 44.7228C25.008 45.7628 25.512 47.3788 25.512 49.5708C25.512 50.3388 25.44 51.1068 25.296 51.8748C25.168 52.6428 24.992 53.3548 24.768 54.0108L21.768 53.3868C21.992 52.8268 22.168 52.2428 22.296 51.6348C22.424 51.0108 22.488 50.3068 22.488 49.5228C22.488 48.4988 22.264 47.7788 21.816 47.3628C21.368 46.9308 20.792 46.7148 20.088 46.7148L19.632 46.7148C19.808 47.0988 19.944 47.4988 20.04 47.9148C20.12 48.3148 20.16 48.7548 20.16 49.2348C20.16 50.9788 19.648 52.3148 18.624 53.2428C17.584 54.1708 16.136 54.6348 14.28 54.6348C13.352 54.6348 12.512 54.4908 11.76 54.2028C10.992 53.9148 10.336 53.4988 9.792 52.9548C9.248 52.3948 8.832 51.7148 8.544 50.9148C8.24 50.1148 8.088 49.2108 8.088 48.2028C8.088 47.7708 8.112 47.3308 8.16 46.8828C8.192 46.4188 8.24 45.9628 8.304 45.5148C8.368 45.0668 8.448 44.6428 8.544 44.2428C8.624 43.8268 8.712 43.4588 8.808 43.1388L19.416 43.1388ZM21.24 34.7448C21.224 35.7848 21.112 36.6328 20.904 37.2888C20.696 37.9288 20.408 38.4408 20.04 38.8248C19.656 39.1928 19.2 39.4488 18.672 39.5928C18.128 39.7208 17.52 39.7848 16.848 39.7848L2.952 39.7848L2.376 36.2088L16.128 36.2088C16.448 36.2088 16.736 36.1848 16.992 36.1368C17.248 36.0888 17.464 36.0008 17.64 35.8728C17.816 35.7288 17.96 35.5288 18.072 35.2728C18.184 35.0168 18.256 34.6728 18.288 34.2408L21.24 34.7448ZM11.544 24.5831C11.464 24.9031 11.384 25.2791 11.304 25.7111C11.208 26.1431 11.16 26.6071 11.16 27.1031C11.16 27.3271 11.184 27.5991 11.232 27.9191C11.264 28.2231 11.304 28.4551 11.352 28.6151L21 28.6151L21 32.1911L9.048 32.1911C8.824 31.5511 8.616 30.7991 8.424 29.9351C8.216 29.0551 8.112 28.0791 8.112 27.0071C8.112 26.8151 8.128 26.5831 8.16 26.3111C8.176 26.0391 8.208 25.7671 8.256 25.4951C8.288 25.2231 8.336 24.9511 8.4 24.6791C8.448 24.4071 8.512 24.1751 8.592 23.9831L11.544 24.5831ZM5.232 22.1861L4.656 18.6101L8.376 18.6101L8.376 14.3141L11.352 14.3141L11.352 18.6101L15.792 18.6101C16.544 18.6101 17.144 18.4821 17.592 18.2261C18.04 17.9541 18.264 17.4181 18.264 16.6181C18.264 16.2341 18.232 15.8421 18.168 15.4421C18.088 15.0261 17.984 14.6501 17.856 14.3141L20.64 13.8101C20.816 14.2421 20.968 14.7221 21.096 15.2501C21.224 15.7781 21.288 16.4261 21.288 17.1941C21.288 18.1701 21.16 18.9781 20.904 19.6181C20.632 20.2581 20.264 20.7701 19.8 21.1541C19.32 21.5381 18.744 21.8101 18.072 21.9701C17.4 22.1141 16.656 22.1861 15.84 22.1861L5.232 22.1861ZM18.504 7.04678C18.504 6.69478 18.496 6.35878 18.48 6.03878C18.464 5.71878 18.44 5.46278 18.408 5.27078L15.696 5.27078C15.664 5.41478 15.632 5.63078 15.6 5.91878C15.568 6.20678 15.552 6.47078 15.552 6.71078C15.552 7.04678 15.576 7.36678 15.624 7.67078C15.656 7.95878 15.728 8.21478 15.84 8.43878C15.952 8.66278 16.104 8.83878 16.296 8.96678C16.488 9.09478 16.728 9.15878 17.016 9.15878C17.576 9.15878 17.968 8.97478 18.192 8.60678C18.4 8.22278 18.504 7.70278 18.504 7.04678ZM8.04 7.33478C8.04 6.27878 8.16 5.39878 8.4 4.69478C8.64 3.99078 8.984 3.43078 9.432 3.01478C9.88 2.58278 10.424 2.27878 11.064 2.10278C11.704 1.92678 12.416 1.83878 13.2 1.83878L20.64 1.83878C20.752 2.35078 20.88 3.06278 21.024 3.97478C21.184 4.88678 21.264 5.99078 21.264 7.28678C21.264 8.10278 21.192 8.84678 21.048 9.51878C20.904 10.1748 20.672 10.7428 20.352 11.2228C20.016 11.7028 19.584 12.0708 19.056 12.3268C18.528 12.5828 17.88 12.7108 17.112 12.7108C16.376 12.7108 15.752 12.5668 15.24 12.2788C14.728 11.9748 14.32 11.5748 14.016 11.0788C13.712 10.5828 13.496 10.0148 13.368 9.37478C13.224 8.73478 13.152 8.07078 13.152 7.38278C13.152 6.91878 13.176 6.51078 13.224 6.15878C13.256 5.79078 13.304 5.49478 13.368 5.27078L13.032 5.27078C12.424 5.27078 11.936 5.45478 11.568 5.82278C11.2 6.19078 11.016 6.83078 11.016 7.74278C11.016 8.35078 11.064 8.95078 11.16 9.54278C11.24 10.1348 11.36 10.6468 11.52 11.0788L8.64 11.5348C8.576 11.3268 8.512 11.0708 8.448 10.7668C8.368 10.4468 8.304 10.1028 8.256 9.73478C8.192 9.36678 8.144 8.98278 8.112 8.58278C8.064 8.16678 8.04 7.75078 8.04 7.33478Z" fill="black"/>
<path id="triangle" d="M15 77.9999L6.94265 61L24 61L15 77.9999Z" fill="black"/>
</g>
</svg>
