<svg width="23" height="61" viewBox="0 0 23 61" fill="none" xmlns="http://www.w3.org/2000/svg">
<g id="logo">
<path id="glrta" d="M0.646001 5.66192C0.646001 4.51792 0.741334 3.61592 0.932001 2.95592C1.108 2.31058 1.45267 1.67258 1.966 1.04192L4.188 2.36192C3.63067 3.30058 3.352 4.23192 3.352 5.15592C3.352 5.75725 3.54267 6.21192 3.924 6.51992C4.30533 6.82792 4.826 6.98192 5.486 6.98192L6.366 6.98192C5.266 6.67392 4.716 5.85992 4.716 4.53992C4.716 3.43992 5.09 2.62592 5.838 2.09792C6.586 1.58458 7.58333 1.32792 8.83 1.32792L14.88 1.32792C16.3027 1.32792 17.388 1.56258 18.136 2.03192C18.8987 2.51592 19.28 3.35192 19.28 4.53992C19.28 5.22925 19.104 5.77192 18.752 6.16792C18.4147 6.57859 17.9307 6.84992 17.3 6.98192L19.104 6.98192L19.104 10.9199L5.728 10.9199C3.924 10.9199 2.626 10.5019 1.834 9.66592C1.042 8.82992 0.646001 7.49525 0.646001 5.66192ZM7.62 6.07992C7.62 6.68125 8.16267 6.98192 9.248 6.98192L14.99 6.98192C15.3127 6.98192 15.6207 6.89392 15.914 6.71792C16.2073 6.54192 16.354 6.32192 16.354 6.05792C16.354 5.72058 16.2293 5.49325 15.98 5.37592C15.7453 5.25858 15.4153 5.19992 14.99 5.19992L9.248 5.19992C8.764 5.19992 8.368 5.25858 8.06 5.37592C7.76667 5.49325 7.62 5.72792 7.62 6.07992ZM3 12.0839L22.008 12.0839L22.008 15.9999L3 15.9999L3 12.0839ZM19.104 17.2109L19.104 21.0609L17.322 21.0609C17.9527 21.2516 18.4367 21.5816 18.774 22.0509C19.126 22.5349 19.302 23.1289 19.302 23.8329L16.09 23.8329C16.09 23.2902 16.0093 22.6889 15.848 22.0289C15.7013 21.3836 15.5253 21.0609 15.32 21.0609L3 21.0609L3 17.2109L19.104 17.2109ZM2.824 27.7654C2.824 26.7534 3.03667 26.0567 3.462 25.6754C3.88733 25.2941 4.56933 25.1034 5.508 25.1034L15.562 25.1034L15.562 24.0254L18.488 24.0254L18.488 25.1034L21.898 25.1034L21.898 28.8434L18.488 28.8434L18.488 29.9434L15.562 29.9434L15.562 28.8434L6.52 28.8434C6.24133 28.8434 6.036 28.8654 5.904 28.9094C5.772 28.9534 5.706 29.0707 5.706 29.2614C5.706 29.4081 5.71333 29.5474 5.728 29.6794C5.74267 29.8114 5.75 29.8994 5.75 29.9434L3.11 29.9434C3.05133 29.7234 2.99267 29.4007 2.934 28.9754C2.86067 28.5647 2.824 28.1614 2.824 27.7654ZM2.824 33.7425C2.824 32.4958 3.23467 31.6378 4.056 31.1685C4.892 30.7138 6.08 30.4865 7.62 30.4865C8.88133 30.4865 9.84933 30.6478 10.524 30.9705C11.1987 31.3078 11.69 31.7698 11.998 32.3565C12.3207 32.9432 12.6727 33.8378 13.054 35.0405L13.406 36.0965L13.45 36.0965L15.056 36.0965C15.4813 36.0965 15.804 36.0085 16.024 35.8325C16.2587 35.6712 16.376 35.4732 16.376 35.2385C16.376 35.0332 16.2807 34.8498 16.09 34.6885C15.8993 34.5418 15.6427 34.4685 15.32 34.4685L14.352 34.4685L14.352 30.7285L14.88 30.7285C16.464 30.7285 17.5933 31.0952 18.268 31.8285C18.9427 32.5765 19.28 33.7865 19.28 35.4585C19.28 36.7932 18.928 37.8785 18.224 38.7145C17.5347 39.5505 16.552 39.9685 15.276 39.9685L3 39.9685L3 36.1405L4.914 36.1405C4.254 35.9498 3.74067 35.6418 3.374 35.2165C3.00733 34.8058 2.824 34.3145 2.824 33.7425ZM5.816 35.2605C5.816 35.5538 5.93333 35.7592 6.168 35.8765C6.41733 36.0085 6.718 36.0745 7.07 36.0745L11.558 36.0745C11.338 35.5025 11.0593 35.0772 10.722 34.7985C10.3847 34.5345 9.91533 34.4025 9.314 34.4025L7.246 34.4025C6.29267 34.4025 5.816 34.6885 5.816 35.2605Z"/>
<path id="triangle" d="M11.5 61L3.27276 47.5L19.7272 47.5L11.5 61Z"/>
</g>
</svg>
