<svg xmlns="http://www.w3.org/2000/svg">
  <symbol 
    id="heroku" 
    width="24" 
    height="24" 
    viewBox="0 0 24 24">
   <path d="M20.61 0H3.39C2.189 0 1.23.96 1.23 2.16v19.681c0 1.198.959 2.159 2.16 2.159h17.22c1.2 0 2.159-.961 2.159-2.159V2.16C22.77.96 21.811 0 20.61 0zm.96 21.841c0 .539-.421.96-.96.96H3.39c-.54 0-.96-.421-.96-.96V2.16c0-.54.42-.961.96-.961h17.22c.539 0 .96.421.96.961v19.681zM6.63 20.399L9.33 18l-2.7-2.4v4.799zm9.72-9.719c-.479-.48-1.379-1.08-2.879-1.08-1.621 0-3.301.421-4.5.84V3.6h-2.4v10.38l1.68-.78s2.76-1.26 5.16-1.26c1.2 0 1.5.66 1.5 1.26v7.2h2.4v-7.2c.059-.179.059-1.501-.961-2.52zM13.17 7.5h2.4c1.08-1.26 1.62-2.521 1.8-3.9h-2.399c-.241 1.379-.841 2.64-1.801 3.9z"></path>
  </symbol>  
    
  <symbol 
    id="postgres" 
    width="24" 
    height="24" 
    viewBox="0 0 24 24">
   <path d="M17.128 0a10.134 10.134 0 0 0-2.755.403l-.063.02A10.922 10.922 0 0 0 12.6.258C11.422.238 10.41.524 9.594 1 8.79.721 7.122.24 5.364.336 4.14.403 2.804.775 1.814 1.82.827 2.865.305 4.482.415 6.682c.03.607.203 1.597.49 2.879s.69 2.783 1.193 4.152c.503 1.37 1.054 2.6 1.915 3.436.43.419 1.022.771 1.72.742.49-.02.933-.235 1.315-.552.186.245.385.352.566.451.228.125.45.21.68.266.413.103 1.12.241 1.948.1.282-.047.579-.139.875-.27.011.33.024.653.037.98.041 1.036.067 1.993.378 2.832.05.137.187.843.727 1.466.54.624 1.598 1.013 2.803.755.85-.182 1.931-.51 2.649-1.532.71-1.01 1.03-2.459 1.093-4.809.016-.127.035-.235.055-.336l.169.015h.02c.907.041 1.891-.088 2.713-.47.728-.337 1.279-.678 1.68-1.283.1-.15.21-.331.24-.643s-.149-.8-.446-1.025c-.595-.452-.969-.28-1.37-.197a6.27 6.27 0 0 1-1.202.146c1.156-1.947 1.985-4.015 2.458-5.845.28-1.08.437-2.076.45-2.947.013-.871-.058-1.642-.58-2.309C21.36.6 19.067.024 17.293.004c-.055-.001-.11-.002-.165-.001zm-.047.64c1.678-.016 3.822.455 5.361 2.422.346.442.449 1.088.437 1.884-.013.795-.16 1.747-.429 2.79-.522 2.02-1.508 4.375-2.897 6.488a.756.756 0 0 0 .158.086c.29.12.951.223 2.27-.048.332-.07.575-.117.827.075a.52.52 0 0 1 .183.425.704.704 0 0 1-.13.336c-.255.383-.758.746-1.403 1.045-.571.266-1.39.405-2.116.413-.364.004-.7-.024-.985-.113l-.018-.007c-.11 1.06-.363 3.153-.528 4.108-.132.77-.363 1.382-.804 1.84-.44.458-1.063.734-1.901.914-1.038.223-1.795-.017-2.283-.428-.487-.41-.71-.954-.844-1.287-.092-.23-.14-.528-.186-.926-.046-.398-.08-.885-.103-1.434a51.426 51.426 0 0 1-.03-2.523 3.061 3.061 0 0 1-1.552.76c-.689.117-1.304.002-1.671-.09a2.276 2.276 0 0 1-.52-.201c-.17-.091-.332-.194-.44-.397a.56.56 0 0 1-.057-.381.61.61 0 0 1 .218-.331c.198-.161.46-.251.855-.333.719-.148.97-.249 1.123-.37.13-.104.277-.314.537-.622a1.16 1.16 0 0 1-.003-.041 2.96 2.96 0 0 1-1.33-.358c-.15.158-.916.968-1.85 2.092-.393.47-.827.74-1.285.759-.458.02-.872-.211-1.224-.552-.703-.683-1.264-1.858-1.753-3.186-.488-1.328-.885-2.807-1.167-4.067-.283-1.26-.45-2.276-.474-2.766-.105-2.082.382-3.485 1.217-4.37.836-.885 1.982-1.22 3.099-1.284 2.005-.115 3.909.584 4.294.734.742-.504 1.698-.818 2.892-.798a7.39 7.39 0 0 1 1.681.218l.02-.009a6.854 6.854 0 0 1 .739-.214A9.626 9.626 0 0 1 17.08.642zm.152.67h-.146a8.74 8.74 0 0 0-1.704.192c1.246.552 2.187 1.402 2.85 2.25a8.44 8.44 0 0 1 1.132 1.92c.11.264.184.487.226.66.021.087.035.16.04.236.002.038.004.077-.012.144 0 .003-.005.01-.006.013.03.876-.187 1.47-.213 2.306-.02.606.135 1.318.173 2.095.036.73-.052 1.532-.526 2.319.04.048.076.096.114.144 1.254-1.975 2.158-4.16 2.64-6.023.258-1.003.395-1.912.407-2.632.01-.72-.124-1.242-.295-1.46-1.342-1.716-3.158-2.153-4.68-2.165zm-4.79.256c-1.182.003-2.03.36-2.673.895-.663.553-1.108 1.31-1.4 2.085-.347.92-.466 1.81-.513 2.414l.013-.008c.357-.2.826-.4 1.328-.516.502-.115 1.043-.151 1.533.039s.895.637 1.042 1.315c.704 3.257-.219 4.468-.559 5.382a9.61 9.61 0 0 0-.331 1.013c.043-.01.086-.022.129-.026.24-.02.428.06.54.108.342.142.577.44.704.78.033.089.057.185.071.284a.336.336 0 0 1 .02.127 55.14 55.14 0 0 0 .013 3.738c.023.538.057 1.012.1 1.386.043.373.104.657.143.753.128.32.315.739.653 1.024.338.284.823.474 1.709.284.768-.165 1.242-.394 1.559-.723.316-.329.505-.787.626-1.488.181-1.05.545-4.095.589-4.668-.02-.432.044-.764.182-1.017.142-.26.362-.419.552-.505.095-.043.184-.072.257-.093a5.956 5.956 0 0 0-.243-.325 4.456 4.456 0 0 1-.666-1.099 8.296 8.296 0 0 0-.257-.483c-.133-.24-.301-.54-.477-.877-.352-.675-.735-1.493-.934-2.29-.198-.796-.227-1.62.281-2.201.45-.516 1.24-.73 2.426-.61-.035-.105-.056-.192-.115-.332a7.817 7.817 0 0 0-1.041-1.764c-1.005-1.285-2.632-2.559-5.146-2.6h-.115zm-6.642.052c-.127 0-.254.004-.38.011-1.01.058-1.965.351-2.648 1.075-.684.724-1.134 1.911-1.036 3.876.019.372.181 1.414.459 2.652.277 1.238.67 2.695 1.142 3.982.473 1.287 1.046 2.407 1.59 2.937.274.265.512.372.728.363.217-.01.478-.135.797-.518a43.244 43.244 0 0 1 1.81-2.048 3.497 3.497 0 0 1-1.167-3.15c.103-.739.117-1.43.105-1.976-.012-.532-.05-.886-.05-1.107a.336.336 0 0 1 0-.019v-.005l-.001-.006v-.001a9.893 9.893 0 0 1 .592-3.376c.28-.744.697-1.5 1.322-2.112-.614-.202-1.704-.51-2.884-.568a7.603 7.603 0 0 0-.38-.01zM18.199 6.9c-.679.009-1.06.184-1.26.413-.283.325-.31.895-.134 1.597.175.703.537 1.489.877 2.142.17.327.335.621.468.86.134.24.232.41.292.555.055.134.116.252.178.362.263-.555.31-1.1.283-1.668-.035-.703-.198-1.422-.174-2.15.027-.851.195-1.405.21-2.063a5.793 5.793 0 0 0-.74-.048zm-8.234.115a2.82 2.82 0 0 0-.616.074 4.665 4.665 0 0 0-1.153.449 2.417 2.417 0 0 0-.349.228l-.022.02c.006.146.035.5.047 1.021.012.57-.002 1.297-.112 2.084-.239 1.71 1.002 3.126 2.46 3.128.085-.351.225-.707.365-1.082.406-1.094 1.205-1.892.532-5.006-.11-.51-.328-.716-.628-.832a1.474 1.474 0 0 0-.524-.084zm7.917.204h.05c.066.002.127.009.18.022.054.012.1.03.138.055a.164.164 0 0 1 .075.11l-.001.008h.001-.001a.24.24 0 0 1-.035.135.668.668 0 0 1-.11.15.677.677 0 0 1-.386.212.59.59 0 0 1-.41-.103.608.608 0 0 1-.13-.118.26.26 0 0 1-.063-.127.17.17 0 0 1 .042-.128.384.384 0 0 1 .117-.09c.096-.054.226-.094.373-.116.055-.008.109-.012.16-.013zm-7.82.168c.053 0 .109.005.166.013.153.021.289.062.393.122a.446.446 0 0 1 .133.106.223.223 0 0 1 .054.17.302.302 0 0 1-.075.154.649.649 0 0 1-.143.13.64.64 0 0 1-.448.113.728.728 0 0 1-.42-.228.71.71 0 0 1-.118-.164.28.28 0 0 1-.041-.177c.015-.108.104-.164.191-.195a.866.866 0 0 1 .307-.04zm9.06 7.343l-.003.001c-.147.053-.268.075-.37.12a.452.452 0 0 0-.239.214c-.063.115-.117.319-.101.666a.51.51 0 0 0 .148.07c.171.052.458.086.778.081.638-.007 1.423-.156 1.84-.35a3.95 3.95 0 0 0 .943-.615h-.001c-1.393.288-2.18.211-2.663.012a1.315 1.315 0 0 1-.332-.2zm-8.031.094h-.021c-.053.005-.13.023-.279.188-.348.39-.47.635-.757.864-.287.228-.66.35-1.405.503-.236.048-.371.101-.461.144.029.024.026.03.07.053.109.06.249.113.362.142.32.08.846.173 1.395.08.549-.094 1.12-.357 1.607-1.04.084-.118.093-.292.024-.479-.07-.187-.223-.348-.331-.393a.653.653 0 0 0-.204-.06z"></path>
  </symbol> 

  <symbol 
    id="material-ui" 
    width="24" 
    height="24" 
    viewBox="0 0 24 24">
   <path d="M0 2.475v10.39l3 1.733V7.67l6 3.465 6-3.465v3.465l-6 3.463v3.464l6 3.463 9-5.195V9.402l-3 1.733v3.463l-6 3.464-3-1.732 6-3.465V2.475L9 7.67 0 2.475zm24 0l-3 1.73V7.67l3-1.732V2.474Z"></path>
  </symbol>  

  <symbol 
    id="figma" 
    width="24" 
    height="24" 
    viewBox="0 0 24 24">
   <path d="M12 12a4 4 0 1 1 8 0 4 4 0 0 1-8 0zM4 20a4 4 0 0 1 4-4h4v4a4 4 0 1 1-8 0zM12 0v8h4a4 4 0 1 0 0-8h-4zM4 4a4 4 0 0 0 4 4h4V0H8a4 4 0 0 0-4 4zM4 12a4 4 0 0 0 4 4h4V8H8a4 4 0 0 0-4 4z"></path>
  </symbol> 

    <symbol 
    id="node" 
    width="24" 
    height="24" 
    viewBox="0 0 24 24">
   <path d="M11.998,24c-0.321,0-0.641-0.084-0.922-0.247l-2.936-1.737c-0.438-0.245-0.224-0.332-0.08-0.383 c0.585-0.203,0.703-0.25,1.328-0.604c0.065-0.037,0.151-0.023,0.218,0.017l2.256,1.339c0.082,0.045,0.197,0.045,0.272,0l8.795-5.076 c0.082-0.047,0.134-0.141,0.134-0.238V6.921c0-0.099-0.053-0.192-0.137-0.242l-8.791-5.072c-0.081-0.047-0.189-0.047-0.271,0 L3.075,6.68C2.99,6.729,2.936,6.825,2.936,6.921v10.15c0,0.097,0.054,0.189,0.139,0.235l2.409,1.392 c1.307,0.654,2.108-0.116,2.108-0.89V7.787c0-0.142,0.114-0.253,0.256-0.253h1.115c0.139,0,0.255,0.112,0.255,0.253v10.021 c0,1.745-0.95,2.745-2.604,2.745c-0.508,0-0.909,0-2.026-0.551L2.28,18.675c-0.57-0.329-0.922-0.945-0.922-1.604V6.921 c0-0.659,0.353-1.275,0.922-1.603l8.795-5.082c0.557-0.315,1.296-0.315,1.848,0l8.794,5.082c0.57,0.329,0.924,0.944,0.924,1.603 v10.15c0,0.659-0.354,1.273-0.924,1.604l-8.794,5.078C12.643,23.916,12.324,24,11.998,24z M19.099,13.993 c0-1.9-1.284-2.406-3.987-2.763c-2.731-0.361-3.009-0.548-3.009-1.187c0-0.528,0.235-1.233,2.258-1.233 c1.807,0,2.473,0.389,2.747,1.607c0.024,0.115,0.129,0.199,0.247,0.199h1.141c0.071,0,0.138-0.031,0.186-0.081 c0.048-0.054,0.074-0.123,0.067-0.196c-0.177-2.098-1.571-3.076-4.388-3.076c-2.508,0-4.004,1.058-4.004,2.833 c0,1.925,1.488,2.457,3.895,2.695c2.88,0.282,3.103,0.703,3.103,1.269c0,0.983-0.789,1.402-2.642,1.402 c-2.327,0-2.839-0.584-3.011-1.742c-0.02-0.124-0.126-0.215-0.253-0.215h-1.137c-0.141,0-0.254,0.112-0.254,0.253 c0,1.482,0.806,3.248,4.655,3.248C17.501,17.007,19.099,15.91,19.099,13.993z"></path>
  </symbol>

  <symbol 
    id="jest" 
    width="24" 
    height="24" 
    viewBox="0 0 24 24">
   <path d="M22.251 11.82a3.117 3.117 0 0 0-2.328-3.01L22.911 0H8.104L11.1 8.838a3.116 3.116 0 0 0-2.244 2.988c0 1.043.52 1.967 1.313 2.536a8.279 8.279 0 0 1-1.084 1.244 8.14 8.14 0 0 1-2.55 1.647c-.834-.563-1.195-1.556-.869-2.446a3.11 3.11 0 0 0-.91-6.08 3.117 3.117 0 0 0-3.113 3.113c0 .848.347 1.626.903 2.182-.048.097-.097.195-.146.299-.465.959-.993 2.043-1.195 3.259-.403 2.432.257 4.384 1.849 5.489A5.093 5.093 0 0 0 5.999 24c1.827 0 3.682-.917 5.475-1.807 1.279-.632 2.599-1.292 3.898-1.612.48-.118.98-.187 1.508-.264 1.07-.153 2.175-.312 3.168-.89a4.482 4.482 0 0 0 2.182-3.091c.174-.994 0-1.994-.444-2.87.298-.48.465-1.042.465-1.647zm-1.355 0c0 .965-.785 1.75-1.75 1.75a1.753 1.753 0 0 1-1.085-3.126l.007-.007c.056-.042.118-.084.18-.125 0 0 .008 0 .008-.007.028-.014.055-.035.083-.05.007 0 .014-.006.021-.006.028-.014.063-.028.097-.042.035-.014.07-.027.098-.041.007 0 .013-.007.02-.007.028-.007.056-.021.084-.028.007 0 .02-.007.028-.007.034-.007.062-.014.097-.02h.007l.104-.022c.007 0 .02 0 .028-.007.028 0 .055-.007.083-.007h.035c.035 0 .07-.007.111-.007h.09c.028 0 .05 0 .077.007h.014c.055.007.111.014.167.028a1.766 1.766 0 0 1 1.396 1.723zM10.043 1.39h10.93l-2.509 7.4c-.104.02-.208.055-.312.09l-2.64-5.385-2.648 5.35c-.104-.034-.216-.055-.327-.076l-2.494-7.38zm4.968 9.825a3.083 3.083 0 0 0-.938-1.668l1.438-2.904 1.452 2.967c-.43.43-.743.98-.868 1.605H15.01zm-3.481-1.098c.034-.007.062-.014.097-.02h.02c.029-.008.056-.008.084-.015h.028c.028 0 .049-.007.076-.007h.271c.028 0 .049.007.07.007.014 0 .02 0 .035.007.027.007.048.007.076.014.007 0 .014 0 .028.007l.097.02h.007c.028.008.056.015.083.029.007 0 .014.007.028.007.021.007.049.014.07.027.007 0 .014.007.02.007.028.014.056.021.084.035h.007a.374.374 0 0 1 .09.049h.007c.028.014.056.034.084.048.007 0 .007.007.013.007.028.014.05.035.077.049l.007.007c.083.062.16.132.236.201l.007.007a1.747 1.747 0 0 1 .48 1.209 1.752 1.752 0 0 1-3.502 0 1.742 1.742 0 0 1 1.32-1.695zm-6.838-.049c.966 0 1.751.786 1.751 1.751s-.785 1.751-1.75 1.751-1.752-.785-1.752-1.75.786-1.752 1.751-1.752zm16.163 6.025a3.07 3.07 0 0 1-1.508 2.133c-.758.438-1.689.577-2.669.716a17.29 17.29 0 0 0-1.64.291c-1.445.355-2.834 1.05-4.182 1.717-1.724.854-3.35 1.66-4.857 1.66a3.645 3.645 0 0 1-2.154-.688c-1.529-1.056-1.453-3.036-1.272-4.12.167-1.015.632-1.966 1.077-2.877.028-.055.049-.104.077-.16.152.056.312.098.479.126-.264 1.473.486 2.994 1.946 3.745l.264.139.284-.104c1.216-.431 2.342-1.133 3.336-2.071a9.334 9.334 0 0 0 1.445-1.716c.16.027.32.034.48.034a3.117 3.117 0 0 0 3.008-2.327h1.167a3.109 3.109 0 0 0 3.01 2.327c.576 0 1.11-.16 1.57-.43.18.52.236 1.063.139 1.605z"></path>
  </symbol>
<symbol 
    id="react" 
    width="24" 
    height="24" 
    viewBox="0 0 24 24">
   <path d="M12 9.861A2.139 2.139 0 1 0 12 14.139 2.139 2.139 0 1 0 12 9.861zM6.008 16.255l-.472-.12C2.018 15.246 0 13.737 0 11.996s2.018-3.25 5.536-4.139l.472-.119.133.468a23.53 23.53 0 0 0 1.363 3.578l.101.213-.101.213a23.307 23.307 0 0 0-1.363 3.578l-.133.467zM5.317 8.95c-2.674.751-4.315 1.9-4.315 3.046 0 1.145 1.641 2.294 4.315 3.046a24.95 24.95 0 0 1 1.182-3.046A24.752 24.752 0 0 1 5.317 8.95zM17.992 16.255l-.133-.469a23.357 23.357 0 0 0-1.364-3.577l-.101-.213.101-.213a23.42 23.42 0 0 0 1.364-3.578l.133-.468.473.119c3.517.889 5.535 2.398 5.535 4.14s-2.018 3.25-5.535 4.139l-.473.12zm-.491-4.259c.48 1.039.877 2.06 1.182 3.046 2.675-.752 4.315-1.901 4.315-3.046 0-1.146-1.641-2.294-4.315-3.046a24.788 24.788 0 0 1-1.182 3.046zM5.31 8.945l-.133-.467C4.188 4.992 4.488 2.494 6 1.622c1.483-.856 3.864.155 6.359 2.716l.34.349-.34.349a23.552 23.552 0 0 0-2.422 2.967l-.135.193-.235.02a23.657 23.657 0 0 0-3.785.61l-.472.119zm1.896-6.63c-.268 0-.505.058-.705.173-.994.573-1.17 2.565-.485 5.253a25.122 25.122 0 0 1 3.233-.501 24.847 24.847 0 0 1 2.052-2.544c-1.56-1.519-3.037-2.381-4.095-2.381zM16.795 22.677c-.001 0-.001 0 0 0-1.425 0-3.255-1.073-5.154-3.023l-.34-.349.34-.349a23.53 23.53 0 0 0 2.421-2.968l.135-.193.234-.02a23.63 23.63 0 0 0 3.787-.609l.472-.119.134.468c.987 3.484.688 5.983-.824 6.854a2.38 2.38 0 0 1-1.205.308zm-4.096-3.381c1.56 1.519 3.037 2.381 4.095 2.381h.001c.267 0 .505-.058.704-.173.994-.573 1.171-2.566.485-5.254a25.02 25.02 0 0 1-3.234.501 24.674 24.674 0 0 1-2.051 2.545zM18.69 8.945l-.472-.119a23.479 23.479 0 0 0-3.787-.61l-.234-.02-.135-.193a23.414 23.414 0 0 0-2.421-2.967l-.34-.349.34-.349C14.135 1.778 16.515.767 18 1.622c1.512.872 1.812 3.37.824 6.855l-.134.468zM14.75 7.24c1.142.104 2.227.273 3.234.501.686-2.688.509-4.68-.485-5.253-.988-.571-2.845.304-4.8 2.208A24.849 24.849 0 0 1 14.75 7.24zM7.206 22.677A2.38 2.38 0 0 1 6 22.369c-1.512-.871-1.812-3.369-.823-6.854l.132-.468.472.119c1.155.291 2.429.496 3.785.609l.235.02.134.193a23.596 23.596 0 0 0 2.422 2.968l.34.349-.34.349c-1.898 1.95-3.728 3.023-5.151 3.023zm-1.19-6.427c-.686 2.688-.509 4.681.485 5.254.987.563 2.843-.305 4.8-2.208a24.998 24.998 0 0 1-2.052-2.545 24.976 24.976 0 0 1-3.233-.501zM12 16.878c-.823 0-1.669-.036-2.516-.106l-.235-.02-.135-.193a30.388 30.388 0 0 1-1.35-2.122 30.354 30.354 0 0 1-1.166-2.228l-.1-.213.1-.213a30.3 30.3 0 0 1 1.166-2.228c.414-.716.869-1.43 1.35-2.122l.135-.193.235-.02a29.785 29.785 0 0 1 5.033 0l.234.02.134.193a30.006 30.006 0 0 1 2.517 4.35l.101.213-.101.213a29.6 29.6 0 0 1-2.517 4.35l-.134.193-.234.02c-.847.07-1.694.106-2.517.106zm-2.197-1.084c1.48.111 2.914.111 4.395 0a29.006 29.006 0 0 0 2.196-3.798 28.585 28.585 0 0 0-2.197-3.798 29.031 29.031 0 0 0-4.394 0 28.477 28.477 0 0 0-2.197 3.798 29.114 29.114 0 0 0 2.197 3.798z"></path>
  </symbol>

   <symbol 
    id="codecov" 
    width="24" 
    height="24" 
    viewBox="0 0 24 24">
   <path d="M12.007.48C5.391.485.005 5.831 0 12.399v.03l2.042 1.191.028-.019a5.821 5.821 0 0 1 3.308-1.02c.371 0 .734.034 1.086.1l-.036-.006a5.69 5.69 0 0 1 2.874 1.431l-.004-.003.35.326.198-.434c.192-.42.414-.814.66-1.173.099-.144.208-.29.332-.446l.205-.257-.252-.211a8.33 8.33 0 0 0-3.836-1.807l-.052-.008a8.566 8.566 0 0 0-4.081.251l.061-.016c.971-4.257 4.714-7.224 9.133-7.227a9.31 9.31 0 0 1 6.601 2.713 9.197 9.197 0 0 1 2.508 4.499 8.386 8.386 0 0 0-2.498-.379h-.154c-.356.006-.7.033-1.037.078l.045-.005-.042.006a8.104 8.104 0 0 0-.39.06c-.057.01-.114.022-.17.033a8.103 8.103 0 0 0-.392.089l-.138.035a9.21 9.21 0 0 0-.483.144l-.029.01c-.355.12-.709.268-1.051.439l-.027.014c-.152.076-.305.16-.469.256l-.036.022a8.217 8.217 0 0 0-2.108 1.801l-.011.013-.075.092a8.346 8.346 0 0 0-.378.503c-.088.13-.177.269-.288.452l-.06.104a8.986 8.986 0 0 0-.234.432l-.016.029c-.17.341-.317.698-.44 1.063l-.017.053a8.053 8.053 0 0 0-.411 2.717v-.007l.001.112c.006.158.013.295.023.431l-.002-.037a11.677 11.677 0 0 0 .042.412l.005.042.013.103c.018.127.038.252.062.378.241 1.266.845 2.532 1.745 3.66l.041.051.042-.05c.359-.424 1.249-1.77 1.325-2.577l.001-.015-.007-.013a5.56 5.56 0 0 1-.64-2.595v-.001c0-3.016 2.371-5.521 5.397-5.702l.199-.007a5.93 5.93 0 0 1 3.47 1.025l.028.019 2.041-1.187v-.03a11.771 11.771 0 0 0-3.511-8.424A11.963 11.963 0 0 0 12.008.48z"></path>
  </symbol>
<symbol 
    id="cypress" 
    width="26" 
    height="26" 
    viewBox="0 0 26 26">
<path d="M12.6952 0.44545C19.466 0.44545 24.945 5.92448 24.945 12.6953C24.945 19.4661 19.466 24.9452 12.6952 24.9452C5.92434 24.9452 0.445312 19.4661 0.445312 12.6953C0.445312 5.92448 5.92434 0.44545 12.6952 0.44545Z"/>
<path d="M19.199 18.0853C18.7535 19.4661 18.0853 20.4907 17.1499 21.2479C16.2144 22.0052 14.9672 22.4061 13.4081 22.5398L13.0963 20.4907C14.1208 20.357 14.8781 20.1343 15.3681 19.778C15.5463 19.6443 15.9026 19.2434 15.9026 19.2434L12.2054 7.39447H15.279L17.4172 16.2589L19.689 7.39447H22.6735L19.199 18.0853ZM8.46362 6.99356C9.17634 6.99356 9.84452 7.08265 10.3791 7.30538C10.9581 7.5281 11.4927 7.83992 12.0272 8.28536L10.78 9.97807C10.4236 9.7108 10.0672 9.53262 9.75543 9.39899C9.44361 9.26535 9.04271 9.22081 8.68635 9.22081C7.17182 9.22081 6.41456 10.379 6.41456 12.7399C6.41456 13.9426 6.59274 14.7889 6.99364 15.2789C7.39454 15.8135 7.92908 16.0362 8.68635 16.0362C9.04271 16.0362 9.39907 15.9916 9.71088 15.858C10.0227 15.7244 10.3791 15.5462 10.8245 15.2789L12.0718 17.0607C11.0472 17.9071 9.88906 18.308 8.55271 18.308C7.48363 18.308 6.59274 18.0853 5.79093 17.6398C5.03366 17.1944 4.41003 16.5262 4.00913 15.6798C3.60822 14.8335 3.3855 13.8535 3.3855 12.6953C3.3855 11.5817 3.60822 10.5572 4.00913 9.7108C4.41003 8.8199 5.03366 8.15173 5.79093 7.66174C6.54819 7.26083 7.43909 6.99356 8.46362 6.99356Z" fill="hsl(270, 100%, 66%)"></path>
  </symbol>

  <symbol 
    id="styled-components" 
    width="24" 
    height="11" 
    viewBox="0 0 24 11">
   <path d="M12.6953 0C19.7124 0 25.3906 5.67827 25.3906 12.6953C25.3906 19.7124 19.7124 25.3906 12.6953 25.3906C5.67827 25.3906 0 19.7124 0 12.6953C0 5.67827 5.67827 0 12.6953 0Z" fill="none"/>
<path d="M16.214 0L16.139 0.391C16.023 1.132 16.065 1.344 16.383 1.619L16.69 1.873L16.372 3.291C16.182 4.137 15.949 4.846 15.801 5.079C15.674 5.28 15.526 5.576 15.494 5.735C15.441 5.925 15.261 6.116 14.986 6.285C14.743 6.423 14.266 6.793 13.928 7.09C13.658 7.333 13.472 7.482 13.371 7.546L13.041 7.807C12.935 7.977 12.875 8.114 12.852 8.218C12.829 8.325 12.842 8.396 12.876 8.448C12.909 8.498 12.966 8.533 13.044 8.555C13.1363 8.57664 13.2314 8.58439 13.326 8.578C13.5401 8.56337 13.7519 8.52583 13.958 8.466C14.028 8.447 14.083 8.429 14.131 8.413C14.205 8.322 14.376 8.15 14.679 7.851C15.483 7.058 15.79 6.624 15.473 6.741C15.356 6.783 15.409 6.677 15.61 6.465C16.034 6.052 16.277 5.428 16.785 3.471C17.187 1.926 17.187 1.904 17.483 1.904C17.622 1.904 18.015 1.928 18.015 1.928V0H17.113H16.214ZM20.053 3.165C19.989 3.165 19.883 3.261 19.82 3.367C19.704 3.557 19.841 3.673 21.587 4.763C22.624 5.42 23.46 5.98 23.439 6.023C23.418 6.054 22.571 6.605 21.556 7.24C19.714 8.382 19.704 8.393 19.873 8.626C20.085 8.901 19.873 8.996 22.264 7.504L24 6.393V5.557L22.063 4.361C21.016 3.705 20.106 3.176 20.053 3.165ZM3.968 3.282C3.915 3.282 3.005 3.822 1.958 4.467L0 5.663V6.499L1.947 7.716C3.027 8.382 3.937 8.933 3.979 8.933C4.021 8.933 4.106 8.837 4.191 8.721C4.318 8.52 4.211 8.435 2.423 7.303C0.72 6.234 0.54 6.086 0.71 5.97C0.816 5.896 1.62 5.398 2.488 4.859C4.467 3.642 4.361 3.726 4.202 3.472C4.139 3.367 4.032 3.272 3.969 3.282H3.968ZM12.652 3.305C12.36 3.303 11.732 3.748 9.852 5.283C9.771 5.476 9.764 5.609 9.801 5.695C9.825 5.754 9.869 5.795 9.93 5.825C9.99 5.855 10.068 5.873 10.154 5.88C10.325 5.895 10.527 5.868 10.69 5.836L10.8 5.811C10.8377 5.76051 10.8871 5.72 10.944 5.693C11.06 5.629 11.547 5.185 12.034 4.709C12.891 3.841 13.092 3.449 12.743 3.322C12.7144 3.31061 12.6838 3.30484 12.653 3.305H12.652ZM14.848 3.908C14.591 3.915 14.128 4.213 13.335 4.846C12.937 5.169 12.685 5.343 12.55 5.379L12.026 5.793C11.829 6.153 11.8 6.376 11.852 6.499C11.865 6.52934 11.8839 6.5568 11.9076 6.5798C11.9313 6.6028 11.9593 6.62088 11.99 6.633C12.0664 6.66317 12.1479 6.67844 12.23 6.678C12.4263 6.67591 12.6214 6.64732 12.81 6.593C12.9083 6.56662 13.0054 6.53592 13.101 6.501L13.13 6.489L13.183 6.461C13.283 6.332 13.513 6.089 13.801 5.809C14.711 4.931 15.176 4.307 15.081 4.074C15.038 3.961 14.964 3.904 14.848 3.908ZM12.424 4.988C12.35 4.996 12.184 5.124 11.885 5.386C11.453 5.768 10.982 5.988 10.819 5.89C10.7811 5.89856 10.7431 5.90656 10.705 5.914C10.539 5.947 10.332 5.974 10.147 5.959C10.0598 5.95372 9.9744 5.93236 9.895 5.896C9.82011 5.86176 9.76035 5.80129 9.727 5.726C9.69 5.636 9.69 5.524 9.732 5.381L9.082 5.915L7.611 7.132V9.105L12.431 5.308C12.4301 5.26643 12.4355 5.22495 12.447 5.185C12.484 5.051 12.482 4.983 12.424 4.989V4.988ZM14.498 5.627C14.425 5.627 14.303 5.73 14.108 5.937C13.843 6.22 13.426 6.494 13.205 6.55L13.171 6.568C13.1347 6.58298 13.098 6.59699 13.061 6.61C13.001 6.63 12.923 6.654 12.833 6.678C12.653 6.727 12.429 6.772 12.229 6.767C12.1347 6.76688 12.0413 6.74854 11.954 6.713C11.8717 6.67907 11.8057 6.61455 11.77 6.533C11.712 6.394 11.735 6.199 11.862 5.922L7.61 9.271V10.476H9.478L13.44 7.364C13.543 7.25 13.698 7.094 13.907 6.899C14.467 6.38 14.594 6.201 14.594 5.936C14.594 5.73 14.571 5.626 14.498 5.626V5.627ZM15.441 7.577L15.102 7.915C14.912 8.095 14.573 8.317 14.341 8.412L14.295 8.432L14.292 8.437L14.282 8.447C14.273 8.454 14.269 8.455 14.262 8.458C14.1694 8.49305 14.0753 8.52408 13.98 8.551C13.7681 8.61267 13.5502 8.65123 13.33 8.666C13.2259 8.67267 13.1214 8.66357 13.02 8.639C12.932 8.61963 12.8543 8.56832 12.802 8.495C12.754 8.421 12.74 8.322 12.767 8.2C12.7885 8.11314 12.8204 8.0292 12.862 7.95L9.665 10.476H13.917L14.425 9.894C15.123 9.08 15.441 8.498 15.441 8V7.577Z"></path>
  </symbol>

<symbol 
    id="airtable" 
    width="24" 
    height="24" 
    viewBox="0 0 24 24">
   <path d="M11.992 1.966c-.434 0-.87.086-1.28.257L1.779 5.917c-.503.208-.49.908.012 1.116l8.982 3.558a3.266 3.266 0 0 0 2.454 0l8.982-3.558c.503-.196.503-.908.012-1.116l-8.957-3.694a3.255 3.255 0 0 0-1.272-.257zM23.4 8.056a.589.589 0 0 0-.222.045l-10.012 3.877a.612.612 0 0 0-.38.564v8.896a.6.6 0 0 0 .821.552L23.62 18.1a.583.583 0 0 0 .38-.551V8.653a.6.6 0 0 0-.6-.596zM.676 8.095a.644.644 0 0 0-.48.19C.086 8.396 0 8.53 0 8.69v8.355c0 .442.515.737.908.54l6.27-3.006.307-.147 2.969-1.436c.466-.22.43-.908-.061-1.092L.883 8.138a.57.57 0 0 0-.207-.044z"></path>
  </symbol>

  <symbol 
    id="netlify" 
    width="24" 
    height="24" 
    viewBox="0 0 24 24">
   <path d="M16.934 8.519a1.044 1.044 0 0 1 .303.23l2.349-1.045-2.192-2.171-.491 2.954zM12.06 6.546a1.305 1.305 0 0 1 .209.574l3.497 1.482a1.044 1.044 0 0 1 .355-.177l.574-3.55-2.13-2.234-2.505 3.852v.053zm11.933 5.491l-3.748-3.748-2.548 1.044 6.264 2.662s.053.042.032.042zm-.627.606l-6.013-2.569a1.044 1.044 0 0 1-.7.407l-.647 3.957a1.044 1.044 0 0 1 .303.731l3.633.762 3.33-3.31v-.062zM15.4 9.25L12.132 7.86a1.2 1.2 0 0 1-1.044.543h-.199L8.185 12.58l7.225-3.132v.01a.887.887 0 0 1 0-.167.052.052 0 0 0-.01-.041zm3.967 7.308l-3.195-.658a1.096 1.096 0 0 1-.46.344l-.761 4.72 4.437-4.396s-.01.02-.021.02zm-4.469-.324a1.044 1.044 0 0 1-.616-.71l-5.95-1.222-.084.136 5.398 7.81.323-.324.919-5.67s.031.022.01.011zm-6.441-2.652l5.878 1.211a1.044 1.044 0 0 1 .824-.522l.637-3.894-.135-.115-7.308 3.132a1.817 1.817 0 0 1 .104.188zm-2.464.981l-.125-.125-2.537 1.044 1.232 1.222 1.399-2.172zm1.67.397a1.368 1.368 0 0 1-.563.125 1.389 1.389 0 0 1-.45-.073l-1.544 2.245 6.765 6.702 1.19-1.18zm-.95-2.641a1.702 1.702 0 0 1 .314 0 1.378 1.378 0 0 1 .344 0l2.735-4.25a1.19 1.19 0 0 1-.334-.824 1.242 1.242 0 0 1 0-.271l-3.32-1.535-2.672 2.6zm.303-7.402l3.237 1.378a1.242 1.242 0 0 1 .835-.282 1.357 1.357 0 0 1 .397.063l2.526-3.947L11.923.041 7.016 4.854s-.01.052 0 .063zm-1.21 8.164a1.566 1.566 0 0 1 .24-.334L3.278 8.613 0 11.797l5.804 1.284zm-.262.7L.533 12.735l2.203 2.235 2.777-1.18z"></path>
  </symbol>
    <symbol 
    id="css" 
    width="24" 
    height="24" 
    viewBox="0 0 24 24">
   <path d="M1.5 0h21l-1.91 21.563L11.977 24l-8.565-2.438L1.5 0zm17.09 4.413L5.41 4.41l.213 2.622 10.125.002-.255 2.716h-6.64l.24 2.573h6.182l-.366 3.523-2.91.804-2.956-.81-.188-2.11h-2.61l.29 3.855L12 19.288l5.373-1.53L18.59 4.414z"></path>
  </symbol>
      <symbol 
    id="html" 
    width="24" 
    height="24" 
    viewBox="0 0 24 24">
   <path d="M1.5 0h21l-1.91 21.563L11.977 24l-8.564-2.438L1.5 0zm7.031 9.75l-.232-2.718 10.059.003.23-2.622L5.412 4.41l.698 8.01h9.126l-.326 3.426-2.91.804-2.955-.81-.188-2.11H6.248l.33 4.171L12 19.351l5.379-1.443.744-8.157H8.531z"></path>
  </symbol>
  
</svg>


